<svg width="18" height="12" viewBox="0 0 18 12" fill="none" xmlns="http://www.w3.org/2000/svg">
<path d="M1.32208 4.69832H13.4712C13.4712 4.69832 10.9118 2.19663 10.8442 2.11101C10.6686 1.88944 10.5632 1.61148 10.5632 1.3089C10.5632 0.974543 10.6914 0.670773 10.901 0.43895L11.0086 0.333079C11.2436 0.126721 11.5526 0 11.8921 0C12.2411 0 12.5584 0.134325 12.7955 0.35128C12.7955 0.35128 17.6974 5.16991 17.7224 5.20169C17.8959 5.42284 18 5.69875 18 5.99996C18 6.3004 17.8959 6.57665 17.7229 6.79745C17.6527 6.88683 12.7343 11.7084 12.7343 11.7084C12.5063 11.8906 12.2158 12 11.8991 12C11.1653 12 10.57 11.4143 10.57 10.6919C10.57 10.3749 10.6845 10.0843 10.8747 9.85806L13.4712 7.30168H1.32208C0.591758 7.30168 0 6.71867 0 5.99996C0 5.28091 0.591758 4.69832 1.32208 4.69832Z" fill="white"/>
</svg>
