<svg xmlns="http://www.w3.org/2000/svg" xmlns:xlink="http://www.w3.org/1999/xlink" width="1080" zoomAndPan="magnify" viewBox="0 0 810 809.999993" height="1080" preserveAspectRatio="xMidYMid meet" version="1.0"><defs><clipPath id="cb27c5fc67"><path d="M 139.625 128.253906 L 694.253906 128.253906 L 694.253906 810 L 139.625 810 Z M 139.625 128.253906 " clip-rule="nonzero"/></clipPath></defs><path fill="#ffffff" d="M 686.683594 398.925781 L 686.683594 541.75 C 686.683594 732.132812 567.742188 803.542969 472.5 803.542969 C 305.9375 803.542969 305.9375 708.355469 210.769531 613.160156 C 186.996094 589.308594 115.605469 541.75 163.222656 494.117188 C 186.996094 470.339844 234.617188 470.339844 305.9375 541.75 L 305.9375 184.765625 C 305.9375 158.414062 327.289062 137.132812 353.558594 137.132812 C 379.832031 137.132812 401.179688 158.414062 401.179688 184.765625 L 401.179688 303.734375 C 401.179688 290.558594 411.78125 279.957031 424.953125 279.957031 L 448.726562 279.957031 C 475 279.957031 496.347656 301.238281 496.347656 327.515625 C 496.347656 314.414062 506.949219 303.734375 520.121094 303.734375 L 543.894531 303.734375 C 570.164062 303.734375 591.515625 325.019531 591.515625 351.371094 L 591.515625 375.148438 C 591.515625 361.972656 602.191406 351.371094 615.289062 351.371094 L 639.0625 351.371094 C 665.40625 351.371094 686.683594 372.648438 686.683594 398.925781 " fill-opacity="1" fill-rule="nonzero"/><g clip-path="url(#cb27c5fc67)"><path fill="#1a1a1a" d="M 472.535156 794.855469 C 358.003906 794.855469 326.097656 749.972656 281.9375 687.859375 C 264.203125 662.90625 244.09375 634.628906 216.144531 606.675781 C 212.453125 602.976562 207.679688 598.742188 202.621094 594.265625 C 182.742188 576.65625 155.523438 552.542969 154.78125 528.039062 C 154.46875 517.660156 158.972656 507.960938 168.554688 498.375 C 195.011719 471.929688 244.375 489.722656 300.617188 545.980469 C 302.785156 548.140625 306.027344 548.796875 308.871094 547.617188 C 311.699219 546.453125 313.542969 543.6875 313.542969 540.625 L 313.542969 183.625 C 313.542969 161.546875 331.492188 143.59375 353.558594 143.59375 C 375.625 143.59375 393.578125 161.546875 393.578125 183.625 L 393.578125 445.425781 L 408.71875 445.425781 L 408.71875 302.621094 C 408.71875 293.671875 416 286.394531 424.945312 286.394531 L 448.734375 286.394531 C 470.804688 286.394531 488.753906 304.351562 488.753906 326.421875 L 488.753906 445.425781 L 503.894531 445.425781 L 503.894531 326.421875 C 503.894531 317.46875 511.175781 310.191406 520.121094 310.191406 L 543.917969 310.191406 C 565.984375 310.191406 583.933594 328.148438 583.933594 350.222656 L 583.933594 445.425781 L 599.078125 445.425781 L 599.078125 374.023438 C 599.078125 365.074219 606.351562 357.796875 615.296875 357.796875 L 639.097656 357.796875 C 661.160156 357.796875 679.113281 375.753906 679.113281 397.820312 L 679.113281 540.625 C 679.113281 741.308594 549.257812 794.855469 472.535156 794.855469 Z M 639.097656 342.652344 L 615.296875 342.652344 C 609.324219 342.652344 603.753906 344.359375 598.996094 347.273438 C 597.457031 318.21875 573.34375 295.046875 543.917969 295.046875 L 520.121094 295.046875 C 511.910156 295.046875 504.453125 298.242188 498.855469 303.421875 C 490.121094 284.457031 470.945312 271.246094 448.734375 271.246094 L 424.945312 271.246094 C 419 271.246094 413.460938 272.941406 408.71875 275.824219 L 408.71875 183.625 C 408.71875 153.203125 383.972656 128.441406 353.558594 128.441406 C 323.144531 128.441406 298.398438 153.203125 298.398438 183.625 L 298.398438 522.855469 C 216.128906 447.15625 172.996094 472.519531 157.847656 487.667969 C 145.328125 500.1875 139.203125 513.925781 139.644531 528.496094 C 140.585938 559.542969 170.640625 586.164062 192.582031 605.605469 C 197.671875 610.117188 202.070312 614.007812 205.441406 617.382812 C 232.492188 644.441406 251.355469 670.976562 269.601562 696.636719 C 314.625 759.96875 350.1875 810 472.535156 810 C 579.320312 810 694.253906 725.699219 694.253906 540.625 L 694.253906 397.820312 C 694.253906 367.402344 669.503906 342.652344 639.097656 342.652344 " fill-opacity="1" fill-rule="nonzero"/></g><path fill="#000000" d="M 537.34375 192.371094 L 442.8125 192.371094 L 442.8125 175.550781 L 537.34375 175.550781 L 537.34375 192.371094 " fill-opacity="1" fill-rule="nonzero"/><path fill="#000000" d="M 264.660156 192.371094 L 169.492188 192.371094 L 169.492188 175.550781 L 264.660156 175.550781 L 264.660156 192.371094 " fill-opacity="1" fill-rule="nonzero"/><path fill="#000000" d="M 434.960938 146.566406 L 426.554688 131.996094 L 508.515625 84.664062 L 516.925781 99.234375 L 434.960938 146.566406 " fill-opacity="1" fill-rule="nonzero"/><path fill="#000000" d="M 198.292969 283.230469 L 189.886719 268.660156 L 272.238281 221.101562 L 280.644531 235.671875 L 198.292969 283.230469 " fill-opacity="1" fill-rule="nonzero"/><path fill="#000000" d="M 405.25 110.917969 L 390.683594 102.507812 L 438.078125 20.394531 L 452.640625 28.804688 L 405.25 110.917969 " fill-opacity="1" fill-rule="nonzero"/><path fill="#000000" d="M 361.789062 94.976562 L 344.972656 94.976562 L 344.972656 0 L 361.789062 0 L 361.789062 94.976562 " fill-opacity="1" fill-rule="nonzero"/><path fill="#000000" d="M 301.695312 111.230469 L 254.136719 28.835938 L 268.699219 20.425781 L 316.257812 102.820312 L 301.695312 111.230469 " fill-opacity="1" fill-rule="nonzero"/><path fill="#000000" d="M 272.339844 146.875 L 189.894531 99.261719 L 198.304688 84.691406 L 280.746094 132.300781 L 272.339844 146.875 " fill-opacity="1" fill-rule="nonzero"/><path fill="#000000" d="M 508.523438 283.261719 L 426.640625 235.980469 L 435.050781 221.414062 L 516.929688 268.691406 L 508.523438 283.261719 " fill-opacity="1" fill-rule="nonzero"/></svg>