<svg width="29" height="29" viewBox="0 0 29 29" fill="none" xmlns="http://www.w3.org/2000/svg">
<mask id="mask0_36_2592" style="mask-type:luminance" maskUnits="userSpaceOnUse" x="0" y="0" width="29" height="29">
<path d="M0 0H29V29H0V0Z" fill="white"/>
</mask>
<g mask="url(#mask0_36_2592)">
<path d="M29 14.5C29 14.7373 28.9942 14.9744 28.9826 15.2115C28.9709 15.4485 28.9534 15.685 28.9302 15.9212C28.9069 16.1574 28.8779 16.3928 28.8431 16.6276C28.8082 16.8623 28.7677 17.096 28.7214 17.3288C28.6751 17.5615 28.6232 17.7931 28.5655 18.0232C28.5077 18.2534 28.4445 18.4821 28.3756 18.7091C28.3068 18.9361 28.2324 19.1615 28.1523 19.3849C28.0725 19.6084 27.987 19.8297 27.8962 20.0489C27.8055 20.2682 27.7093 20.4849 27.6078 20.6995C27.5064 20.914 27.3998 21.1259 27.2879 21.3353C27.176 21.5446 27.059 21.7509 26.937 21.9545C26.815 22.1581 26.6881 22.3585 26.5563 22.5557C26.4245 22.7531 26.2879 22.947 26.1465 23.1377C26.0051 23.3282 25.8592 23.5153 25.7086 23.6986C25.5581 23.8821 25.4031 24.0618 25.2438 24.2375C25.0844 24.4134 24.9208 24.5853 24.7531 24.7531C24.5853 24.9208 24.4134 25.0844 24.2375 25.2438C24.0618 25.4031 23.8821 25.5581 23.6986 25.7086C23.5153 25.8592 23.3282 26.0051 23.1377 26.1465C22.947 26.2879 22.7531 26.4245 22.5557 26.5563C22.3585 26.6881 22.1581 26.815 21.9545 26.937C21.7509 27.059 21.5446 27.176 21.3353 27.2879C21.1259 27.3998 20.914 27.5064 20.6995 27.6078C20.4849 27.7093 20.2682 27.8055 20.0489 27.8962C19.8297 27.987 19.6084 28.0725 19.3849 28.1523C19.1615 28.2324 18.9361 28.3068 18.7091 28.3756C18.4821 28.4445 18.2534 28.5077 18.0232 28.5655C17.7931 28.6232 17.5615 28.6751 17.3288 28.7214C17.096 28.7677 16.8623 28.8082 16.6276 28.8431C16.3928 28.8779 16.1574 28.9069 15.9212 28.9302C15.685 28.9534 15.4485 28.9709 15.2115 28.9826C14.9744 28.9942 14.7373 29 14.5 29C14.2627 29 14.0256 28.9942 13.7885 28.9826C13.5515 28.9709 13.315 28.9534 13.0788 28.9302C12.8426 28.9069 12.6072 28.8779 12.3724 28.8431C12.1377 28.8082 11.9039 28.7677 11.6712 28.7214C11.4385 28.6751 11.2069 28.6232 10.9768 28.5655C10.7466 28.5077 10.5179 28.4445 10.2909 28.3756C10.0639 28.3068 9.83853 28.2324 9.61508 28.1523C9.39162 28.0725 9.17034 27.987 8.95108 27.8962C8.73182 27.8055 8.5149 27.7093 8.30045 27.6078C8.08586 27.5064 7.87406 27.3998 7.66474 27.2879C7.45543 27.176 7.24907 27.059 7.0455 26.937C6.84194 26.815 6.64148 26.6881 6.44429 26.5563C6.24694 26.4245 6.05301 26.2879 5.86234 26.1465C5.67183 26.0051 5.48474 25.8592 5.30122 25.7086C5.11786 25.5581 4.93822 25.4031 4.76232 25.2438C4.58657 25.0844 4.41471 24.9208 4.24688 24.7531C4.07921 24.5853 3.91558 24.4134 3.75615 24.2375C3.59687 24.0618 3.44195 23.8821 3.29137 23.6986C3.1408 23.5153 2.99488 23.3282 2.85348 23.1377C2.71207 22.947 2.57548 22.7531 2.4437 22.5557C2.31178 22.3585 2.18498 22.1581 2.06299 21.9545C1.94101 21.7509 1.824 21.5446 1.71212 21.3353C1.60023 21.1259 1.49363 20.914 1.39216 20.6995C1.29069 20.4849 1.1945 20.2682 1.10375 20.0489C1.013 19.8297 0.927539 19.6084 0.847667 19.3849C0.76764 19.1615 0.693207 18.9361 0.624368 18.7091C0.555529 18.4821 0.492284 18.2534 0.434478 18.0232C0.376827 17.7931 0.324926 17.5615 0.278619 17.3288C0.232312 17.096 0.191755 16.8623 0.156947 16.6276C0.122139 16.3928 0.0930802 16.1574 0.0697713 15.9212C0.0466178 15.685 0.0290584 15.4485 0.017404 15.2115C0.00574952 14.9744 0 14.7373 0 14.5C0 14.2627 0.00574952 14.0256 0.017404 13.7885C0.0290584 13.5515 0.0466178 13.315 0.0697713 13.0788C0.0930802 12.8426 0.122139 12.6072 0.156947 12.3724C0.191755 12.1377 0.232312 11.904 0.278619 11.6712C0.324926 11.4385 0.376827 11.2069 0.434478 10.9768C0.492284 10.7466 0.555529 10.5179 0.624368 10.2909C0.693207 10.0639 0.76764 9.83853 0.847667 9.61508C0.927539 9.39162 1.013 9.17034 1.10375 8.95108C1.1945 8.73182 1.29069 8.5149 1.39216 8.30045C1.49363 8.08586 1.60023 7.87406 1.71212 7.66474C1.824 7.45543 1.94101 7.24907 2.06299 7.0455C2.18498 6.84194 2.31178 6.64148 2.4437 6.44429C2.57548 6.24694 2.71207 6.05301 2.85348 5.86234C2.99488 5.67183 3.1408 5.48474 3.29137 5.30122C3.44195 5.11786 3.59687 4.93822 3.75615 4.76232C3.91558 4.58657 4.07921 4.41471 4.24688 4.24688C4.41471 4.07921 4.58657 3.91558 4.76232 3.75615C4.93822 3.59687 5.11786 3.44195 5.30122 3.29137C5.48474 3.1408 5.67183 2.99488 5.86234 2.85348C6.05301 2.71207 6.24694 2.57548 6.44429 2.4437C6.64148 2.31178 6.84194 2.18498 7.0455 2.06299C7.24907 1.94101 7.45543 1.824 7.66474 1.71212C7.87406 1.60023 8.08586 1.49363 8.30045 1.39216C8.5149 1.29069 8.73182 1.1945 8.95108 1.10375C9.17034 1.013 9.39162 0.927539 9.61508 0.847667C9.83853 0.76764 10.0639 0.693207 10.2909 0.624368C10.5179 0.555529 10.7466 0.492284 10.9768 0.434478C11.2069 0.376827 11.4385 0.324926 11.6712 0.278619C11.9039 0.232312 12.1377 0.191755 12.3724 0.156947C12.6072 0.122139 12.8426 0.0930802 13.0788 0.0697713C13.315 0.0466178 13.5515 0.0290584 13.7885 0.017404C14.0256 0.00574952 14.2627 0 14.5 0C14.7373 0 14.9744 0.00574952 15.2115 0.017404C15.4485 0.0290584 15.685 0.0466178 15.9212 0.0697713C16.1574 0.0930802 16.3928 0.122139 16.6276 0.156947C16.8623 0.191755 17.096 0.232312 17.3288 0.278619C17.5615 0.324926 17.7931 0.376827 18.0232 0.434478C18.2534 0.492284 18.4821 0.555529 18.7091 0.624368C18.9361 0.693207 19.1615 0.76764 19.3849 0.847667C19.6084 0.927539 19.8297 1.013 20.0489 1.10375C20.2682 1.1945 20.4849 1.29069 20.6995 1.39216C20.914 1.49363 21.1259 1.60023 21.3353 1.71212C21.5446 1.824 21.7509 1.94101 21.9545 2.06299C22.1581 2.18498 22.3585 2.31178 22.5557 2.4437C22.7531 2.57548 22.947 2.71207 23.1377 2.85348C23.3282 2.99488 23.5153 3.1408 23.6986 3.29137C23.8821 3.44195 24.0618 3.59687 24.2375 3.75615C24.4134 3.91558 24.5853 4.07921 24.7531 4.24688C24.9208 4.41471 25.0844 4.58657 25.2438 4.76232C25.4031 4.93822 25.5581 5.11786 25.7086 5.30122C25.8592 5.48474 26.0051 5.67183 26.1465 5.86234C26.2879 6.05301 26.4245 6.24694 26.5563 6.44429C26.6881 6.64148 26.815 6.84194 26.937 7.0455C27.059 7.24907 27.176 7.45543 27.2879 7.66474C27.3998 7.87406 27.5064 8.08586 27.6078 8.30045C27.7093 8.5149 27.8055 8.73182 27.8962 8.95108C27.987 9.17034 28.0725 9.39162 28.1523 9.61508C28.2324 9.83853 28.3068 10.0639 28.3756 10.2909C28.4445 10.5179 28.5077 10.7466 28.5655 10.9768C28.6232 11.2069 28.6751 11.4385 28.7214 11.6712C28.7677 11.904 28.8082 12.1377 28.8431 12.3724C28.8779 12.6072 28.9069 12.8426 28.9302 13.0788C28.9534 13.315 28.9709 13.5515 28.9826 13.7885C28.9942 14.0256 29 14.2627 29 14.5Z" fill="#2947CB"/>
</g>
</svg>
