<svg width="51" height="51" viewBox="0 0 51 51" fill="none" xmlns="http://www.w3.org/2000/svg">
<mask id="mask0_36_2607" style="mask-type:luminance" maskUnits="userSpaceOnUse" x="0" y="0" width="51" height="51">
<path d="M0 0H51V51H0V0Z" fill="white"/>
</mask>
<g mask="url(#mask0_36_2607)">
<path d="M51 25.5C51 25.9173 50.9899 26.3343 50.9694 26.7513C50.9489 27.1681 50.918 27.584 50.8773 27.9994C50.8363 28.4148 50.7852 28.8288 50.724 29.2417C50.6628 29.6544 50.5915 30.0654 50.51 30.4747C50.4286 30.8841 50.3373 31.2913 50.2359 31.696C50.1343 32.1007 50.023 32.503 49.902 32.9022C49.7809 33.3015 49.65 33.6978 49.5093 34.0907C49.3688 34.4837 49.2185 34.8728 49.0589 35.2584C48.8993 35.644 48.7302 36.0253 48.5517 36.4026C48.3733 36.7798 48.1858 37.1525 47.989 37.5206C47.7923 37.8887 47.5865 38.2516 47.372 38.6096C47.1575 38.9676 46.9342 39.3202 46.7025 39.6669C46.4707 40.014 46.2305 40.3551 45.9818 40.6904C45.7331 41.0254 45.4765 41.3544 45.2117 41.6769C44.9469 41.9996 44.6745 42.3155 44.3944 42.6246C44.114 42.934 43.8262 43.2362 43.5313 43.5313C43.2362 43.8262 42.934 44.114 42.6246 44.3944C42.3155 44.6745 41.9996 44.9469 41.6769 45.2117C41.3544 45.4765 41.0254 45.7331 40.6904 45.9818C40.3551 46.2305 40.014 46.4707 39.6669 46.7025C39.3202 46.9342 38.9676 47.1575 38.6096 47.372C38.2516 47.5865 37.8887 47.7923 37.5206 47.989C37.1525 48.1858 36.7798 48.3733 36.4026 48.5517C36.0253 48.7302 35.644 48.8993 35.2584 49.0589C34.8728 49.2185 34.4837 49.3688 34.0907 49.5093C33.6978 49.65 33.3015 49.7809 32.9022 49.902C32.503 50.023 32.1007 50.1343 31.696 50.2359C31.2913 50.3373 30.8841 50.4286 30.4747 50.51C30.0654 50.5915 29.6544 50.6628 29.2417 50.724C28.8288 50.7852 28.4148 50.8363 27.9994 50.8773C27.584 50.918 27.1681 50.9489 26.7513 50.9694C26.3343 50.9899 25.9173 51 25.5 51C25.0827 51 24.6657 50.9899 24.2487 50.9694C23.8319 50.9489 23.416 50.918 23.0006 50.8773C22.5852 50.8363 22.1712 50.7852 21.7583 50.724C21.3456 50.6628 20.9344 50.5915 20.5253 50.51C20.1159 50.4286 19.7087 50.3373 19.304 50.2359C18.8993 50.1343 18.497 50.023 18.0978 49.902C17.6985 49.7809 17.3022 49.65 16.9093 49.5093C16.5163 49.3688 16.1272 49.2185 15.7416 49.0589C15.356 48.8993 14.9745 48.7302 14.5974 48.5517C14.22 48.3733 13.8475 48.1858 13.4794 47.989C13.1113 47.7923 12.7484 47.5865 12.3904 47.372C12.0324 47.1575 11.6798 46.9342 11.3331 46.7025C10.986 46.4707 10.6449 46.2305 10.3096 45.9818C9.9746 45.7331 9.64558 45.4765 9.32284 45.2117C9.00037 44.9469 8.68446 44.6745 8.37511 44.3944C8.06604 44.114 7.76379 43.8262 7.46865 43.5313C7.17379 43.2362 6.88603 42.934 6.60565 42.6246C6.32554 42.3155 6.05308 41.9996 5.78828 41.6769C5.52347 41.3544 5.26686 41.0254 5.01818 40.6904C4.7695 40.3551 4.52929 40.014 4.29755 39.6669C4.06554 39.3202 3.84254 38.9676 3.62802 38.6096C3.4135 38.2516 3.20772 37.8887 3.01096 37.5206C2.8142 37.1525 2.62674 36.7798 2.44829 36.4026C2.26984 36.0253 2.10068 35.644 1.94108 35.2584C1.78149 34.8728 1.63119 34.4837 1.49072 34.0907C1.34999 33.6978 1.21909 33.3015 1.09803 32.9022C0.976964 32.503 0.865741 32.1007 0.764082 31.696C0.662696 31.2913 0.571422 30.8841 0.489985 30.4747C0.408549 30.0654 0.337224 29.6544 0.27601 29.2417C0.214796 28.8288 0.163693 28.4148 0.122701 27.9994C0.081983 27.584 0.0511028 27.1681 0.030607 26.7513C0.0101112 26.3343 0 25.9173 0 25.5C0 25.0827 0.0101112 24.6657 0.030607 24.2487C0.0511028 23.8319 0.081983 23.416 0.122701 23.0006C0.163693 22.5852 0.214796 22.1712 0.27601 21.7583C0.337224 21.3456 0.408549 20.9346 0.489985 20.5253C0.571422 20.1159 0.662696 19.7087 0.764082 19.304C0.865741 18.8993 0.976964 18.497 1.09803 18.0978C1.21909 17.6985 1.34999 17.3022 1.49072 16.9093C1.63119 16.5163 1.78149 16.1272 1.94108 15.7416C2.10068 15.356 2.26984 14.9745 2.44829 14.5974C2.62674 14.22 2.8142 13.8475 3.01096 13.4794C3.20772 13.1113 3.4135 12.7484 3.62802 12.3904C3.84254 12.0324 4.06554 11.6798 4.29755 11.3331C4.52929 10.986 4.7695 10.6449 5.01818 10.3096C5.26686 9.9746 5.52347 9.64558 5.78828 9.32284C6.05308 9.00037 6.32554 8.68446 6.60565 8.37511C6.88603 8.06604 7.17379 7.76379 7.46865 7.46865C7.76379 7.17379 8.06604 6.88603 8.37511 6.60565C8.68446 6.32554 9.00037 6.05308 9.32284 5.78828C9.64558 5.52347 9.9746 5.26686 10.3096 5.01818C10.6449 4.7695 10.986 4.52929 11.3331 4.29755C11.6798 4.06554 12.0324 3.84254 12.3904 3.62802C12.7484 3.4135 13.1113 3.20772 13.4794 3.01096C13.8475 2.8142 14.22 2.62674 14.5974 2.44829C14.9745 2.26984 15.356 2.10068 15.7416 1.94108C16.1272 1.78149 16.5163 1.63119 16.9093 1.49072C17.3022 1.34999 17.6985 1.21909 18.0978 1.09803C18.497 0.976964 18.8993 0.865741 19.304 0.764082C19.7087 0.662696 20.1159 0.571422 20.5253 0.489985C20.9344 0.408549 21.3456 0.337224 21.7583 0.27601C22.1712 0.214796 22.5852 0.163693 23.0006 0.122701C23.416 0.081983 23.8319 0.0511028 24.2487 0.030607C24.6657 0.0101112 25.0827 0 25.5 0C25.9173 0 26.3343 0.0101112 26.7513 0.030607C27.1681 0.0511028 27.584 0.081983 27.9994 0.122701C28.4148 0.163693 28.8288 0.214796 29.2417 0.27601C29.6544 0.337224 30.0654 0.408549 30.4747 0.489985C30.8841 0.571422 31.2913 0.662696 31.696 0.764082C32.1007 0.865741 32.503 0.976964 32.9022 1.09803C33.3015 1.21909 33.6978 1.34999 34.0907 1.49072C34.4837 1.63119 34.8728 1.78149 35.2584 1.94108C35.644 2.10068 36.0253 2.26984 36.4026 2.44829C36.7798 2.62674 37.1525 2.8142 37.5206 3.01096C37.8887 3.20772 38.2516 3.4135 38.6096 3.62802C38.9676 3.84254 39.3202 4.06554 39.6669 4.29755C40.014 4.52929 40.3551 4.7695 40.6904 5.01818C41.0254 5.26686 41.3544 5.52347 41.6769 5.78828C41.9996 6.05308 42.3155 6.32554 42.6246 6.60565C42.934 6.88603 43.2362 7.17379 43.5313 7.46865C43.8262 7.76379 44.114 8.06604 44.3944 8.37511C44.6745 8.68446 44.9469 9.00037 45.2117 9.32284C45.4765 9.64558 45.7331 9.9746 45.9818 10.3096C46.2305 10.6449 46.4707 10.986 46.7025 11.3331C46.9342 11.6798 47.1575 12.0324 47.372 12.3904C47.5865 12.7484 47.7923 13.1113 47.989 13.4794C48.1858 13.8475 48.3733 14.22 48.5517 14.5974C48.7302 14.9745 48.8993 15.356 49.0589 15.7416C49.2185 16.1272 49.3688 16.5163 49.5093 16.9093C49.65 17.3022 49.7809 17.6985 49.902 18.0978C50.023 18.497 50.1343 18.8993 50.2359 19.304C50.3373 19.7087 50.4286 20.1159 50.51 20.5253C50.5915 20.9346 50.6628 21.3456 50.724 21.7583C50.7852 22.1712 50.8363 22.5852 50.8773 23.0006C50.918 23.416 50.9489 23.8319 50.9694 24.2487C50.9899 24.6657 51 25.0827 51 25.5Z" fill="#FEC4DD"/>
</g>
</svg>
