<svg width="279" height="299" viewBox="0 0 279 299" fill="none" xmlns="http://www.w3.org/2000/svg">
<mask id="mask0_36_2582" style="mask-type:luminance" maskUnits="userSpaceOnUse" x="0" y="0" width="279" height="299">
<path d="M0 56.905L216.068 0.739638L278.786 242.016L62.718 298.181L0 56.905Z" fill="white"/>
</mask>
<g mask="url(#mask0_36_2582)">
<path d="M252.633 194.624L217.741 229.004L182.847 263.384C176.766 269.378 165.149 272.397 156.919 270.124L109.7 257.089L62.4811 244.052C54.2516 241.78 45.8268 233.225 43.6789 224.962L19.0273 130.127C16.8794 121.864 20.0715 110.289 26.1528 104.297L61.0454 69.9166L95.9396 35.5367C102.021 29.5434 113.637 26.5236 121.867 28.797L169.087 41.8321L216.305 54.8686C224.535 57.1408 232.959 65.6958 235.107 73.959L259.759 168.794C261.907 177.057 258.715 188.632 252.633 194.624Z" fill="#FCC350"/>
</g>
</svg>
