<svg width="227" height="242" viewBox="0 0 227 242" fill="none" xmlns="http://www.w3.org/2000/svg">
<mask id="mask0_36_2553" style="mask-type:luminance" maskUnits="userSpaceOnUse" x="0" y="0" width="227" height="242">
<path d="M0 45.6821L175.739 -3.1363e-06L226.751 196.242L51.0117 241.924L0 45.6821Z" fill="white"/>
</mask>
<g mask="url(#mask0_36_2553)">
<path d="M205.479 157.696L177.099 185.659L148.718 213.622C143.772 218.497 134.324 220.953 127.63 219.104L89.2242 208.502L50.819 197.898C44.1256 196.05 37.2733 189.092 35.5262 182.371L15.4759 105.238C13.7288 98.5167 16.3252 89.1024 21.2714 84.2287L49.6513 56.2651L78.0325 28.3022C82.9784 23.4275 92.427 20.9714 99.1208 22.8204L137.527 33.4225L175.932 44.0258C182.625 45.8739 189.477 52.8321 191.225 59.553L211.275 136.687C213.022 143.408 210.426 152.822 205.479 157.696Z" fill="#24D8D7"/>
</g>
</svg>
