<svg width="271" height="270" viewBox="0 0 271 270" fill="none" xmlns="http://www.w3.org/2000/svg">
<mask id="mask0_36_2447" style="mask-type:luminance" maskUnits="userSpaceOnUse" x="0" y="0" width="11" height="11">
<path d="M0 0H10.3429V10.1735H0V0Z" fill="white"/>
</mask>
<g mask="url(#mask0_36_2447)">
<path d="M10.1394 5.05541C10.1394 7.84966 7.87689 10.1161 5.08395 10.1161C2.28969 10.1161 0.0258789 7.84966 0.0258789 5.05541C0.0258789 2.26246 2.28969 -0.00265503 5.08395 -0.00265503C7.87689 -0.00265503 10.1394 2.26246 10.1394 5.05541Z" fill="#E5E5E5"/>
</g>
<mask id="mask1_36_2447" style="mask-type:luminance" maskUnits="userSpaceOnUse" x="43" y="0" width="11" height="11">
<path d="M43.3735 0H53.7164V10.1735H43.3735V0Z" fill="white"/>
</mask>
<g mask="url(#mask1_36_2447)">
<path d="M53.4898 5.05489C53.4898 7.84914 51.226 10.1156 48.4318 10.1156C45.6388 10.1156 43.375 7.84914 43.375 5.05489C43.375 2.26194 45.6388 -0.00317383 48.4318 -0.00317383C51.226 -0.00317383 53.4898 2.26194 53.4898 5.05489Z" fill="#E5E5E5"/>
</g>
<mask id="mask2_36_2447" style="mask-type:luminance" maskUnits="userSpaceOnUse" x="86" y="0" width="12" height="11">
<path d="M86.4131 0H97.0896V10.1735H86.4131V0Z" fill="white"/>
</mask>
<g mask="url(#mask2_36_2447)">
<path d="M96.838 5.0554C96.838 7.84965 94.5742 10.1161 91.7799 10.1161C88.987 10.1161 86.7231 7.84965 86.7231 5.0554C86.7231 2.26245 88.987 -0.00267029 91.7799 -0.00267029C94.5742 -0.00267029 96.838 2.26245 96.838 5.0554Z" fill="#E5E5E5"/>
</g>
<mask id="mask3_36_2447" style="mask-type:luminance" maskUnits="userSpaceOnUse" x="129" y="0" width="12" height="11">
<path d="M129.787 0H140.463V10.1735H129.787V0Z" fill="white"/>
</mask>
<g mask="url(#mask3_36_2447)">
<path d="M140.187 5.0554C140.187 7.84965 137.923 10.1161 135.129 10.1161C132.336 10.1161 130.072 7.84965 130.072 5.0554C130.072 2.26245 132.336 -0.00267029 135.129 -0.00267029C137.923 -0.00267029 140.187 2.26245 140.187 5.0554Z" fill="#E5E5E5"/>
</g>
<mask id="mask4_36_2447" style="mask-type:luminance" maskUnits="userSpaceOnUse" x="173" y="0" width="11" height="11">
<path d="M173.16 0H183.837V10.1735H173.16V0Z" fill="white"/>
</mask>
<g mask="url(#mask4_36_2447)">
<path d="M183.535 5.0554C183.535 7.84965 181.271 10.1161 178.477 10.1161C175.684 10.1161 173.42 7.84965 173.42 5.0554C173.42 2.26245 175.684 -0.00267029 178.477 -0.00267029C181.271 -0.00267029 183.535 2.26245 183.535 5.0554Z" fill="#E5E5E5"/>
</g>
<mask id="mask5_36_2447" style="mask-type:luminance" maskUnits="userSpaceOnUse" x="216" y="0" width="12" height="11">
<path d="M216.534 0H227.21V10.1735H216.534V0Z" fill="white"/>
</mask>
<g mask="url(#mask5_36_2447)">
<path d="M226.884 5.0554C226.884 7.84965 224.62 10.1161 221.827 10.1161C219.034 10.1161 216.77 7.84965 216.77 5.0554C216.77 2.26245 219.034 -0.00267029 221.827 -0.00267029C224.62 -0.00267029 226.884 2.26245 226.884 5.0554Z" fill="#E5E5E5"/>
</g>
<mask id="mask6_36_2447" style="mask-type:luminance" maskUnits="userSpaceOnUse" x="259" y="0" width="12" height="11">
<path d="M259.907 0H270.25V10.1735H259.907V0Z" fill="white"/>
</mask>
<g mask="url(#mask6_36_2447)">
<path d="M270.232 5.0554C270.232 7.84965 267.968 10.1161 265.177 10.1161C262.382 10.1161 260.119 7.84965 260.119 5.0554C260.119 2.26245 262.382 -0.00267029 265.177 -0.00267029C267.968 -0.00267029 270.232 2.26245 270.232 5.0554Z" fill="#E5E5E5"/>
</g>
<path d="M10.1394 48.4096C10.1394 51.2038 7.87689 53.4689 5.08395 53.4689C2.28969 53.4689 0.0258789 51.2038 0.0258789 48.4096C0.0258789 45.6153 2.28969 43.3502 5.08395 43.3502C7.87689 43.3502 10.1394 45.6153 10.1394 48.4096Z" fill="#E5E5E5"/>
<path d="M53.4898 48.4096C53.4898 51.2038 51.226 53.4689 48.4318 53.4689C45.6388 53.4689 43.375 51.2038 43.375 48.4096C43.375 45.6153 45.6388 43.3502 48.4318 43.3502C51.226 43.3502 53.4898 45.6153 53.4898 48.4096Z" fill="#E5E5E5"/>
<path d="M96.8385 48.4096C96.8385 51.2038 94.5746 53.4689 91.7804 53.4689C88.9874 53.4689 86.7236 51.2038 86.7236 48.4096C86.7236 45.6153 88.9874 43.3502 91.7804 43.3502C94.5746 43.3502 96.8385 45.6153 96.8385 48.4096Z" fill="#E5E5E5"/>
<path d="M140.187 48.4096C140.187 51.2038 137.923 53.4689 135.129 53.4689C132.336 53.4689 130.072 51.2038 130.072 48.4096C130.072 45.6153 132.336 43.3502 135.129 43.3502C137.923 43.3502 140.187 45.6153 140.187 48.4096Z" fill="#E5E5E5"/>
<path d="M183.536 48.4096C183.536 51.2038 181.272 53.4689 178.478 53.4689C175.685 53.4689 173.421 51.2038 173.421 48.4096C173.421 45.6153 175.685 43.3502 178.478 43.3502C181.272 43.3502 183.536 45.6153 183.536 48.4096Z" fill="#E5E5E5"/>
<path d="M226.884 48.4096C226.884 51.2038 224.62 53.4689 221.827 53.4689C219.034 53.4689 216.77 51.2038 216.77 48.4096C216.77 45.6153 219.034 43.3502 221.827 43.3502C224.62 43.3502 226.884 45.6153 226.884 48.4096Z" fill="#E5E5E5"/>
<path d="M270.232 48.4096C270.232 51.2038 267.968 53.4689 265.177 53.4689C262.382 53.4689 260.119 51.2038 260.119 48.4096C260.119 45.6153 262.382 43.3502 265.177 43.3502C267.968 43.3502 270.232 45.6153 270.232 48.4096Z" fill="#E5E5E5"/>
<path d="M10.1394 91.4912C10.1394 94.2867 7.87689 96.5506 5.08395 96.5506C2.28969 96.5506 0.0258789 94.2867 0.0258789 91.4912C0.0258789 88.6982 2.28969 86.4318 5.08395 86.4318C7.87689 86.4318 10.1394 88.6982 10.1394 91.4912Z" fill="#E5E5E5"/>
<path d="M53.4898 91.4912C53.4898 94.2867 51.226 96.5506 48.4318 96.5506C45.6388 96.5506 43.375 94.2867 43.375 91.4912C43.375 88.6982 45.6388 86.4318 48.4318 86.4318C51.226 86.4318 53.4898 88.6982 53.4898 91.4912Z" fill="#E5E5E5"/>
<path d="M96.8385 91.4912C96.8385 94.2867 94.5746 96.5506 91.7804 96.5506C88.9874 96.5506 86.7236 94.2867 86.7236 91.4912C86.7236 88.6982 88.9874 86.4318 91.7804 86.4318C94.5746 86.4318 96.8385 88.6982 96.8385 91.4912Z" fill="#E5E5E5"/>
<path d="M140.187 91.4912C140.187 94.2867 137.923 96.5506 135.129 96.5506C132.336 96.5506 130.072 94.2867 130.072 91.4912C130.072 88.6982 132.336 86.4318 135.129 86.4318C137.923 86.4318 140.187 88.6982 140.187 91.4912Z" fill="#E5E5E5"/>
<path d="M183.536 91.4912C183.536 94.2867 181.272 96.5506 178.478 96.5506C175.685 96.5506 173.421 94.2867 173.421 91.4912C173.421 88.6982 175.685 86.4318 178.478 86.4318C181.272 86.4318 183.536 88.6982 183.536 91.4912Z" fill="#E5E5E5"/>
<path d="M226.884 91.4912C226.884 94.2867 224.62 96.5506 221.827 96.5506C219.034 96.5506 216.77 94.2867 216.77 91.4912C216.77 88.6982 219.034 86.4318 221.827 86.4318C224.62 86.4318 226.884 88.6982 226.884 91.4912Z" fill="#E5E5E5"/>
<path d="M270.232 91.4912C270.232 94.2867 267.968 96.5506 265.177 96.5506C262.382 96.5506 260.119 94.2867 260.119 91.4912C260.119 88.6982 262.382 86.4318 265.177 86.4318C267.968 86.4318 270.232 88.6982 270.232 91.4912Z" fill="#E5E5E5"/>
<path d="M10.1394 134.854C10.1394 137.65 7.87689 139.914 5.08395 139.914C2.28969 139.914 0.0258789 137.65 0.0258789 134.854C0.0258789 132.061 2.28969 129.796 5.08395 129.796C7.87689 129.796 10.1394 132.061 10.1394 134.854Z" fill="#E5E5E5"/>
<path d="M53.4898 134.854C53.4898 137.65 51.226 139.914 48.4318 139.914C45.6388 139.914 43.375 137.65 43.375 134.854C43.375 132.061 45.6388 129.796 48.4318 129.796C51.226 129.796 53.4898 132.061 53.4898 134.854Z" fill="#E5E5E5"/>
<path d="M96.8385 134.854C96.8385 137.65 94.5746 139.914 91.7804 139.914C88.9874 139.914 86.7236 137.65 86.7236 134.854C86.7236 132.061 88.9874 129.796 91.7804 129.796C94.5746 129.796 96.8385 132.061 96.8385 134.854Z" fill="#E5E5E5"/>
<path d="M140.187 134.854C140.187 137.65 137.923 139.914 135.129 139.914C132.336 139.914 130.072 137.65 130.072 134.854C130.072 132.061 132.336 129.796 135.129 129.796C137.923 129.796 140.187 132.061 140.187 134.854Z" fill="#E5E5E5"/>
<path d="M183.536 134.854C183.536 137.65 181.272 139.914 178.478 139.914C175.685 139.914 173.421 137.65 173.421 134.854C173.421 132.061 175.685 129.796 178.478 129.796C181.272 129.796 183.536 132.061 183.536 134.854Z" fill="#E5E5E5"/>
<path d="M226.884 134.854C226.884 137.65 224.62 139.914 221.827 139.914C219.034 139.914 216.77 137.65 216.77 134.854C216.77 132.061 219.034 129.796 221.827 129.796C224.62 129.796 226.884 132.061 226.884 134.854Z" fill="#E5E5E5"/>
<path d="M270.232 134.854C270.232 137.65 267.968 139.914 265.177 139.914C262.382 139.914 260.119 137.65 260.119 134.854C260.119 132.061 262.382 129.796 265.177 129.796C267.968 129.796 270.232 132.061 270.232 134.854Z" fill="#E5E5E5"/>
<path d="M10.1394 178.208C10.1394 181.002 7.87689 183.266 5.08395 183.266C2.28969 183.266 0.0258789 181.002 0.0258789 178.208C0.0258789 175.414 2.28969 173.149 5.08395 173.149C7.87689 173.149 10.1394 175.414 10.1394 178.208Z" fill="#E5E5E5"/>
<path d="M53.4898 178.208C53.4898 181.002 51.226 183.266 48.4318 183.266C45.6388 183.266 43.375 181.002 43.375 178.208C43.375 175.414 45.6388 173.149 48.4318 173.149C51.226 173.149 53.4898 175.414 53.4898 178.208Z" fill="#E5E5E5"/>
<path d="M96.8385 178.208C96.8385 181.002 94.5746 183.266 91.7804 183.266C88.9874 183.266 86.7236 181.002 86.7236 178.208C86.7236 175.414 88.9874 173.149 91.7804 173.149C94.5746 173.149 96.8385 175.414 96.8385 178.208Z" fill="#E5E5E5"/>
<path d="M140.187 178.208C140.187 181.002 137.923 183.266 135.129 183.266C132.336 183.266 130.072 181.002 130.072 178.208C130.072 175.414 132.336 173.149 135.129 173.149C137.923 173.149 140.187 175.414 140.187 178.208Z" fill="#E5E5E5"/>
<path d="M183.536 178.208C183.536 181.002 181.272 183.266 178.478 183.266C175.685 183.266 173.421 181.002 173.421 178.208C173.421 175.414 175.685 173.149 178.478 173.149C181.272 173.149 183.536 175.414 183.536 178.208Z" fill="#E5E5E5"/>
<path d="M226.884 178.208C226.884 181.002 224.62 183.266 221.827 183.266C219.034 183.266 216.77 181.002 216.77 178.208C216.77 175.414 219.034 173.149 221.827 173.149C224.62 173.149 226.884 175.414 226.884 178.208Z" fill="#E5E5E5"/>
<path d="M270.232 178.208C270.232 181.002 267.968 183.266 265.177 183.266C262.382 183.266 260.119 181.002 260.119 178.208C260.119 175.414 262.382 173.149 265.177 173.149C267.968 173.149 270.232 175.414 270.232 178.208Z" fill="#E5E5E5"/>
<path d="M10.1394 221.291C10.1394 224.084 7.87689 226.349 5.08395 226.349C2.28969 226.349 0.0258789 224.084 0.0258789 221.291C0.0258789 218.495 2.28969 216.232 5.08395 216.232C7.87689 216.232 10.1394 218.495 10.1394 221.291Z" fill="#E5E5E5"/>
<path d="M53.4898 221.291C53.4898 224.084 51.226 226.349 48.4318 226.349C45.6388 226.349 43.375 224.084 43.375 221.291C43.375 218.495 45.6388 216.232 48.4318 216.232C51.226 216.232 53.4898 218.495 53.4898 221.291Z" fill="#E5E5E5"/>
<path d="M96.8385 221.291C96.8385 224.084 94.5746 226.349 91.7804 226.349C88.9874 226.349 86.7236 224.084 86.7236 221.291C86.7236 218.495 88.9874 216.232 91.7804 216.232C94.5746 216.232 96.8385 218.495 96.8385 221.291Z" fill="#E5E5E5"/>
<path d="M140.187 221.291C140.187 224.084 137.923 226.349 135.129 226.349C132.336 226.349 130.072 224.084 130.072 221.291C130.072 218.495 132.336 216.232 135.129 216.232C137.923 216.232 140.187 218.495 140.187 221.291Z" fill="#E5E5E5"/>
<path d="M183.536 221.291C183.536 224.084 181.272 226.349 178.478 226.349C175.685 226.349 173.421 224.084 173.421 221.291C173.421 218.495 175.685 216.232 178.478 216.232C181.272 216.232 183.536 218.495 183.536 221.291Z" fill="#E5E5E5"/>
<path d="M226.884 221.291C226.884 224.084 224.62 226.349 221.827 226.349C219.034 226.349 216.77 224.084 216.77 221.291C216.77 218.495 219.034 216.232 221.827 216.232C224.62 216.232 226.884 218.495 226.884 221.291Z" fill="#E5E5E5"/>
<path d="M270.232 221.291C270.232 224.084 267.968 226.349 265.177 226.349C262.382 226.349 260.119 224.084 260.119 221.291C260.119 218.495 262.382 216.232 265.177 216.232C267.968 216.232 270.232 218.495 270.232 221.291Z" fill="#E5E5E5"/>
<mask id="mask7_36_2447" style="mask-type:luminance" maskUnits="userSpaceOnUse" x="0" y="259" width="11" height="11">
<path d="M0 259.738H10.3429V270H0V259.738Z" fill="white"/>
</mask>
<g mask="url(#mask7_36_2447)">
<path d="M10.1394 264.924C10.1394 267.718 7.87689 269.983 5.08395 269.983C2.28969 269.983 0.0258789 267.718 0.0258789 264.924C0.0258789 262.131 2.28969 259.864 5.08395 259.864C7.87689 259.864 10.1394 262.131 10.1394 264.924Z" fill="#E5E5E5"/>
</g>
<mask id="mask8_36_2447" style="mask-type:luminance" maskUnits="userSpaceOnUse" x="43" y="259" width="11" height="11">
<path d="M43.3735 259.738H53.7164V270H43.3735V259.738Z" fill="white"/>
</mask>
<g mask="url(#mask8_36_2447)">
<path d="M53.4893 264.924C53.4893 267.718 51.2255 269.983 48.4313 269.983C45.6383 269.983 43.3745 267.718 43.3745 264.924C43.3745 262.131 45.6383 259.864 48.4313 259.864C51.2255 259.864 53.4893 262.131 53.4893 264.924Z" fill="#E5E5E5"/>
</g>
<mask id="mask9_36_2447" style="mask-type:luminance" maskUnits="userSpaceOnUse" x="86" y="259" width="12" height="11">
<path d="M86.4131 259.738H97.0896V270H86.4131V259.738Z" fill="white"/>
</mask>
<g mask="url(#mask9_36_2447)">
<path d="M96.838 264.924C96.838 267.718 94.5742 269.983 91.7799 269.983C88.987 269.983 86.7231 267.718 86.7231 264.924C86.7231 262.131 88.987 259.864 91.7799 259.864C94.5742 259.864 96.838 262.131 96.838 264.924Z" fill="#E5E5E5"/>
</g>
<mask id="mask10_36_2447" style="mask-type:luminance" maskUnits="userSpaceOnUse" x="129" y="259" width="12" height="11">
<path d="M129.787 259.738H140.463V270H129.787V259.738Z" fill="white"/>
</mask>
<g mask="url(#mask10_36_2447)">
<path d="M140.187 264.924C140.187 267.718 137.923 269.983 135.129 269.983C132.336 269.983 130.072 267.718 130.072 264.924C130.072 262.131 132.336 259.864 135.129 259.864C137.923 259.864 140.187 262.131 140.187 264.924Z" fill="#E5E5E5"/>
</g>
<mask id="mask11_36_2447" style="mask-type:luminance" maskUnits="userSpaceOnUse" x="173" y="259" width="11" height="11">
<path d="M173.16 259.738H183.837V270H173.16V259.738Z" fill="white"/>
</mask>
<g mask="url(#mask11_36_2447)">
<path d="M183.535 264.924C183.535 267.718 181.271 269.983 178.477 269.983C175.684 269.983 173.42 267.718 173.42 264.924C173.42 262.131 175.684 259.864 178.477 259.864C181.271 259.864 183.535 262.131 183.535 264.924Z" fill="#E5E5E5"/>
</g>
<mask id="mask12_36_2447" style="mask-type:luminance" maskUnits="userSpaceOnUse" x="216" y="259" width="12" height="11">
<path d="M216.534 259.738H227.21V270H216.534V259.738Z" fill="white"/>
</mask>
<g mask="url(#mask12_36_2447)">
<path d="M226.884 264.924C226.884 267.718 224.62 269.983 221.827 269.983C219.034 269.983 216.77 267.718 216.77 264.924C216.77 262.131 219.034 259.864 221.827 259.864C224.62 259.864 226.884 262.131 226.884 264.924Z" fill="#E5E5E5"/>
</g>
<mask id="mask13_36_2447" style="mask-type:luminance" maskUnits="userSpaceOnUse" x="259" y="259" width="12" height="11">
<path d="M259.907 259.738H270.25V270H259.907V259.738Z" fill="white"/>
</mask>
<g mask="url(#mask13_36_2447)">
<path d="M270.232 264.924C270.232 267.718 267.968 269.983 265.177 269.983C262.382 269.983 260.119 267.718 260.119 264.924C260.119 262.131 262.382 259.864 265.177 259.864C267.968 259.864 270.232 262.131 270.232 264.924Z" fill="#E5E5E5"/>
</g>
</svg>
