<svg width="24" height="24" viewBox="0 0 24 24" fill="none" xmlns="http://www.w3.org/2000/svg">
<mask id="mask0_36_2597" style="mask-type:luminance" maskUnits="userSpaceOnUse" x="0" y="0" width="24" height="24">
<path d="M0 0H24V24H0V0Z" fill="white"/>
</mask>
<g mask="url(#mask0_36_2597)">
<path d="M24 12C24 12.1964 23.9952 12.3926 23.9856 12.5889C23.976 12.785 23.9614 12.9807 23.9423 13.1762C23.923 13.3717 23.8989 13.5665 23.8701 13.7608C23.8413 13.955 23.8077 14.1484 23.7694 14.341C23.7311 14.5337 23.6881 14.7253 23.6404 14.9158C23.5926 15.1062 23.5403 15.2955 23.4833 15.4834C23.4263 15.6713 23.3647 15.8578 23.2985 16.0427C23.2324 16.2276 23.1616 16.4108 23.0865 16.5922C23.0114 16.7737 22.9318 16.9531 22.8479 17.1307C22.7639 17.3081 22.6757 17.4835 22.5831 17.6568C22.4905 17.83 22.3936 18.0008 22.2927 18.1692C22.1917 18.3377 22.0867 18.5036 21.9776 18.6668C21.8686 18.8301 21.7555 18.9906 21.6385 19.1484C21.5215 19.3061 21.4007 19.4609 21.2761 19.6127C21.1515 19.7645 21.0233 19.9132 20.8915 20.0586C20.7595 20.2042 20.6241 20.3465 20.4853 20.4853C20.3465 20.6241 20.2042 20.7595 20.0586 20.8915C19.9132 21.0233 19.7645 21.1515 19.6127 21.2761C19.4609 21.4007 19.3061 21.5215 19.1484 21.6385C18.9906 21.7555 18.8301 21.8686 18.6668 21.9776C18.5036 22.0867 18.3377 22.1917 18.1692 22.2927C18.0008 22.3936 17.83 22.4905 17.6568 22.5831C17.4835 22.6757 17.3081 22.7639 17.1307 22.8479C16.9531 22.9318 16.7737 23.0114 16.5922 23.0865C16.4108 23.1616 16.2276 23.2324 16.0427 23.2985C15.8578 23.3647 15.6713 23.4263 15.4834 23.4833C15.2955 23.5403 15.1062 23.5926 14.9158 23.6404C14.7253 23.6881 14.5337 23.7311 14.341 23.7694C14.1484 23.8077 13.955 23.8413 13.7608 23.8701C13.5665 23.8989 13.3717 23.923 13.1762 23.9423C12.9807 23.9614 12.785 23.976 12.5889 23.9856C12.3926 23.9952 12.1964 24 12 24C11.8036 24 11.6074 23.9952 11.4111 23.9856C11.215 23.976 11.0193 23.9614 10.8238 23.9423C10.6283 23.923 10.4335 23.8989 10.2392 23.8701C10.045 23.8413 9.85147 23.8077 9.65895 23.7694C9.46631 23.7311 9.27469 23.6881 9.08423 23.6404C8.89378 23.5926 8.70448 23.5403 8.51659 23.4833C8.3287 23.4263 8.14223 23.3647 7.9573 23.2985C7.77238 23.2324 7.58925 23.1616 7.40779 23.0865C7.22634 23.0114 7.04681 22.9318 6.86934 22.8479C6.69174 22.7639 6.51646 22.6757 6.34324 22.5831C6.17001 22.4905 5.99923 22.3936 5.83076 22.2927C5.66229 22.1917 5.4964 22.0867 5.3332 21.9776C5.16988 21.8686 5.00939 21.7555 4.85159 21.6385C4.69393 21.5215 4.53909 21.4007 4.38722 21.2761C4.23547 21.1515 4.08681 21.0233 3.94123 20.8915C3.79578 20.7595 3.65355 20.6241 3.51466 20.4853C3.3759 20.3465 3.24048 20.2042 3.10854 20.0586C2.97672 19.9132 2.84851 19.7645 2.72389 19.6127C2.59928 19.4609 2.47852 19.3061 2.3615 19.1484C2.24447 18.9906 2.13143 18.8301 2.02238 18.6668C1.91319 18.5036 1.80826 18.3377 1.7073 18.1692C1.60635 18.0008 1.50952 17.83 1.41692 17.6568C1.32433 17.4835 1.23611 17.3081 1.15213 17.1307C1.06816 16.9531 0.988554 16.7737 0.913452 16.5922C0.838349 16.4108 0.767618 16.2276 0.701517 16.0427C0.635288 15.8578 0.573688 15.6713 0.516718 15.4834C0.459748 15.2955 0.407407 15.1062 0.359568 14.9158C0.311857 14.7253 0.268904 14.5337 0.230581 14.341C0.192258 14.1484 0.158693 13.955 0.129887 13.7608C0.10108 13.5665 0.0770319 13.3717 0.0577418 13.1762C0.0385803 12.9807 0.0240484 12.785 0.0144033 12.5889C0.00475822 12.3926 0 12.1964 0 12C0 11.8036 0.00475822 11.6074 0.0144033 11.4111C0.0240484 11.215 0.0385803 11.0193 0.0577418 10.8238C0.0770319 10.6283 0.10108 10.4335 0.129887 10.2392C0.158693 10.045 0.192258 9.85159 0.230581 9.65895C0.268904 9.46631 0.311857 9.27469 0.359568 9.08423C0.407407 8.89378 0.459748 8.70448 0.516718 8.51659C0.573688 8.3287 0.635288 8.14223 0.701517 7.9573C0.767618 7.77238 0.838349 7.58925 0.913452 7.40779C0.988554 7.22634 1.06816 7.04681 1.15213 6.86934C1.23611 6.69174 1.32433 6.51646 1.41692 6.34324C1.50952 6.17001 1.60635 5.99923 1.7073 5.83076C1.80826 5.66229 1.91319 5.4964 2.02238 5.3332C2.13143 5.16988 2.24447 5.00939 2.3615 4.85159C2.47852 4.69393 2.59928 4.53909 2.72389 4.38722C2.84851 4.23547 2.97672 4.08681 3.10854 3.94123C3.24048 3.79578 3.3759 3.65355 3.51466 3.51466C3.65355 3.3759 3.79578 3.24048 3.94123 3.10854C4.08681 2.97672 4.23547 2.84851 4.38722 2.72389C4.53909 2.59928 4.69393 2.47852 4.85159 2.3615C5.00939 2.24447 5.16988 2.13143 5.3332 2.02238C5.4964 1.91319 5.66229 1.80826 5.83076 1.7073C5.99923 1.60635 6.17001 1.50952 6.34324 1.41692C6.51646 1.32433 6.69174 1.23611 6.86934 1.15213C7.04681 1.06816 7.22634 0.988554 7.40779 0.913452C7.58925 0.838349 7.77238 0.767618 7.9573 0.701517C8.14223 0.635288 8.3287 0.573688 8.51659 0.516718C8.70448 0.459748 8.89378 0.407407 9.08423 0.359568C9.27469 0.311857 9.46631 0.268904 9.65895 0.230581C9.85147 0.192258 10.045 0.158693 10.2392 0.129887C10.4335 0.10108 10.6283 0.0770319 10.8238 0.0577418C11.0193 0.0385803 11.215 0.0240484 11.4111 0.0144033C11.6074 0.00475822 11.8036 0 12 0C12.1964 0 12.3926 0.00475822 12.5889 0.0144033C12.785 0.0240484 12.9807 0.0385803 13.1762 0.0577418C13.3717 0.0770319 13.5665 0.10108 13.7608 0.129887C13.955 0.158693 14.1484 0.192258 14.341 0.230581C14.5337 0.268904 14.7253 0.311857 14.9158 0.359568C15.1062 0.407407 15.2955 0.459748 15.4834 0.516718C15.6713 0.573688 15.8578 0.635288 16.0427 0.701517C16.2276 0.767618 16.4108 0.838349 16.5922 0.913452C16.7737 0.988554 16.9531 1.06816 17.1307 1.15213C17.3081 1.23611 17.4835 1.32433 17.6568 1.41692C17.83 1.50952 18.0008 1.60635 18.1692 1.7073C18.3377 1.80826 18.5036 1.91319 18.6668 2.02238C18.8301 2.13143 18.9906 2.24447 19.1484 2.3615C19.3061 2.47852 19.4609 2.59928 19.6127 2.72389C19.7645 2.84851 19.9132 2.97672 20.0586 3.10854C20.2042 3.24048 20.3465 3.3759 20.4853 3.51466C20.6241 3.65355 20.7595 3.79578 20.8915 3.94123C21.0233 4.08681 21.1515 4.23547 21.2761 4.38722C21.4007 4.53909 21.5215 4.69393 21.6385 4.85159C21.7555 5.00939 21.8686 5.16988 21.9776 5.3332C22.0867 5.4964 22.1917 5.66229 22.2927 5.83076C22.3936 5.99923 22.4905 6.17001 22.5831 6.34324C22.6757 6.51646 22.7639 6.69174 22.8479 6.86934C22.9318 7.04681 23.0114 7.22634 23.0865 7.40779C23.1616 7.58925 23.2324 7.77238 23.2985 7.9573C23.3647 8.14223 23.4263 8.3287 23.4833 8.51659C23.5403 8.70448 23.5926 8.89378 23.6404 9.08423C23.6881 9.27469 23.7311 9.46631 23.7694 9.65895C23.8077 9.85159 23.8413 10.045 23.8701 10.2392C23.8989 10.4335 23.923 10.6283 23.9423 10.8238C23.9614 11.0193 23.976 11.215 23.9856 11.4111C23.9952 11.6074 24 11.8036 24 12Z" fill="#FCC350"/>
</g>
</svg>
