<svg width="131" height="131" viewBox="0 0 131 131" fill="none" xmlns="http://www.w3.org/2000/svg">
<mask id="mask0_36_2587" style="mask-type:luminance" maskUnits="userSpaceOnUse" x="0" y="0" width="131" height="131">
<path d="M69.7764 0.732971L130.066 63.176L60.3376 130.499L0.0482946 68.056L69.7764 0.732971Z" fill="white"/>
</mask>
<g mask="url(#mask0_36_2587)">
<path d="M71.3916 112.591L53.0841 107.341L34.7767 102.091C31.5857 101.176 28.3442 97.8191 27.5422 94.5979L22.9375 76.1175L18.3336 57.6372C17.5312 54.4163 18.8192 49.9293 21.2072 47.6236L48.6142 21.162C51.0022 18.8564 55.5316 17.7266 58.7224 18.6415L77.0298 23.891L95.3372 29.1412C98.5283 30.0558 101.77 33.413 102.572 36.6342L107.176 55.1146L111.78 73.5949C112.583 76.8158 111.295 81.3028 108.907 83.6085L81.4998 110.07C79.1118 112.376 74.5823 113.506 71.3916 112.591Z" fill="#FEC4DD"/>
</g>
</svg>
