<svg xmlns="http://www.w3.org/2000/svg" xmlns:xlink="http://www.w3.org/1999/xlink" width="1080" zoomAndPan="magnify" viewBox="0 0 810 809.999993" height="1080" preserveAspectRatio="xMidYMid meet" version="1.0"><defs><clipPath id="1e9e8e2f01"><path d="M 0 59 L 810 59 L 810 750.976562 L 0 750.976562 Z M 0 59 " clip-rule="nonzero"/></clipPath></defs><g clip-path="url(#1e9e8e2f01)"><path fill="#000000" d="M 45.503906 59.078125 L 764.496094 59.078125 C 777.023438 59.078125 788.402344 64.195312 796.640625 72.433594 C 804.882812 80.667969 810 92.042969 810 104.558594 L 810 591.261719 C 810 603.78125 804.882812 615.152344 796.640625 623.394531 C 788.402344 631.632812 777.023438 636.742188 764.496094 636.742188 L 490.695312 636.742188 C 492.003906 647.542969 494.832031 658.710938 499.460938 669.351562 C 503.804688 679.335938 509.738281 688.851562 517.492188 697.132812 L 550.207031 697.132812 C 557.574219 697.132812 564.265625 700.140625 569.113281 704.984375 C 573.953125 709.824219 576.960938 716.511719 576.960938 723.875 L 576.960938 741.347656 C 576.960938 746.46875 572.808594 750.621094 567.6875 750.621094 L 242.3125 750.621094 C 237.191406 750.621094 233.039062 746.46875 233.039062 741.347656 L 233.039062 723.875 C 233.039062 716.511719 236.046875 709.824219 240.886719 704.984375 C 245.734375 700.140625 252.421875 697.132812 259.792969 697.132812 L 292.503906 697.132812 C 300.257812 688.851562 306.195312 679.335938 310.539062 669.351562 C 315.164062 658.710938 317.992188 647.542969 319.304688 636.742188 L 45.503906 636.742188 C 32.976562 636.742188 21.597656 631.632812 13.359375 623.394531 C 5.117188 615.152344 0 603.78125 0 591.261719 L 0 104.558594 C 0 92.042969 5.117188 80.667969 13.359375 72.433594 C 21.597656 64.195312 32.976562 59.078125 45.503906 59.078125 Z M 282.707031 172.535156 C 288.679688 172.535156 294.09375 174.960938 298.007812 178.875 C 301.921875 182.789062 304.347656 188.199219 304.347656 194.167969 C 304.347656 200.144531 301.921875 205.550781 298.007812 209.464844 C 294.09375 213.378906 288.679688 215.800781 282.707031 215.800781 C 276.730469 215.800781 271.320312 213.378906 267.402344 209.464844 C 263.488281 205.550781 261.0625 200.144531 261.0625 194.167969 C 261.0625 188.199219 263.488281 182.789062 267.402344 178.875 C 271.320312 174.960938 276.730469 172.535156 282.707031 172.535156 Z M 291.453125 185.429688 C 289.214844 183.191406 286.121094 181.808594 282.707031 181.808594 C 279.289062 181.808594 276.199219 183.191406 273.960938 185.429688 C 271.722656 187.664062 270.339844 190.753906 270.339844 194.167969 C 270.339844 197.582031 271.722656 200.675781 273.960938 202.910156 C 276.199219 205.144531 279.289062 206.53125 282.707031 206.53125 C 286.121094 206.53125 289.214844 205.144531 291.453125 202.910156 C 293.6875 200.675781 295.070312 197.582031 295.070312 194.167969 C 295.070312 190.753906 293.6875 187.664062 291.453125 185.429688 Z M 215.078125 173.695312 C 221.050781 173.695312 226.464844 176.117188 230.378906 180.035156 C 234.292969 183.945312 236.71875 189.359375 236.71875 195.328125 C 236.71875 201.300781 234.292969 206.710938 230.378906 210.625 C 226.464844 214.539062 221.050781 216.960938 215.078125 216.960938 C 209.101562 216.960938 203.691406 214.539062 199.773438 210.625 C 195.859375 206.710938 193.433594 201.300781 193.433594 195.328125 C 193.433594 189.359375 195.859375 183.945312 199.773438 180.035156 C 203.691406 176.117188 209.101562 173.695312 215.078125 173.695312 Z M 223.824219 186.589844 C 221.585938 184.351562 218.492188 182.96875 215.078125 182.96875 C 211.660156 182.96875 208.570312 184.351562 206.332031 186.589844 C 204.09375 188.824219 202.710938 191.914062 202.710938 195.328125 C 202.710938 198.742188 204.09375 201.835938 206.332031 204.070312 C 208.570312 206.304688 211.660156 207.6875 215.078125 207.6875 C 218.492188 207.6875 221.585938 206.304688 223.824219 204.070312 C 226.058594 201.835938 227.441406 198.742188 227.441406 195.328125 C 227.441406 191.914062 226.058594 188.824219 223.824219 186.589844 Z M 147.449219 174.855469 C 153.425781 174.855469 158.835938 177.277344 162.75 181.191406 C 166.664062 185.105469 169.089844 190.515625 169.089844 196.488281 C 169.089844 202.460938 166.664062 207.867188 162.75 211.785156 C 158.835938 215.695312 153.425781 218.117188 147.449219 218.117188 C 141.472656 218.117188 136.0625 215.695312 132.144531 211.785156 C 128.230469 207.867188 125.804688 202.460938 125.804688 196.488281 C 125.804688 190.515625 128.230469 185.105469 132.144531 181.191406 C 136.0625 177.277344 141.472656 174.855469 147.449219 174.855469 Z M 156.195312 187.746094 C 153.957031 185.511719 150.863281 184.125 147.449219 184.125 C 144.03125 184.125 140.941406 185.511719 138.703125 187.746094 C 136.464844 189.980469 135.082031 193.070312 135.082031 196.488281 C 135.082031 199.902344 136.464844 202.996094 138.703125 205.230469 C 140.941406 207.464844 144.03125 208.847656 147.449219 208.847656 C 150.863281 208.847656 153.957031 207.464844 156.195312 205.230469 C 158.429688 202.996094 159.8125 199.902344 159.8125 196.488281 C 159.8125 193.070312 158.429688 189.980469 156.195312 187.746094 Z M 379.316406 195.328125 C 376.753906 195.328125 374.675781 193.25 374.675781 190.691406 C 374.675781 188.132812 376.753906 186.058594 379.316406 186.058594 L 684.84375 186.058594 C 687.402344 186.058594 689.480469 188.132812 689.480469 190.691406 C 689.480469 193.25 687.402344 195.328125 684.84375 195.328125 Z M 379.316406 439.460938 C 376.753906 439.460938 374.675781 437.382812 374.675781 434.824219 C 374.675781 432.265625 376.753906 430.191406 379.316406 430.191406 L 565.8125 430.191406 C 568.375 430.191406 570.453125 432.265625 570.453125 434.824219 C 570.453125 437.382812 568.375 439.460938 565.8125 439.460938 Z M 379.316406 373.019531 C 376.753906 373.019531 374.675781 370.941406 374.675781 368.382812 C 374.675781 365.824219 376.753906 363.75 379.316406 363.75 L 684.84375 363.75 C 687.402344 363.75 689.480469 365.824219 689.480469 368.382812 C 689.480469 370.941406 687.402344 373.019531 684.84375 373.019531 Z M 379.316406 306.578125 C 376.753906 306.578125 374.675781 304.503906 374.675781 301.941406 C 374.675781 299.382812 376.753906 297.308594 379.316406 297.308594 L 684.84375 297.308594 C 687.402344 297.308594 689.480469 299.382812 689.480469 301.941406 C 689.480469 304.503906 687.402344 306.578125 684.84375 306.578125 Z M 97.976562 277.222656 L 280.378906 277.222656 C 283.792969 277.222656 286.5625 279.988281 286.5625 283.402344 L 286.5625 465.730469 C 286.5625 469.144531 283.792969 471.910156 280.378906 471.910156 L 97.976562 471.910156 C 94.558594 471.910156 91.792969 469.144531 91.792969 465.730469 L 91.792969 283.402344 C 91.792969 279.988281 94.558594 277.222656 97.976562 277.222656 Z M 274.199219 289.582031 L 104.160156 289.582031 L 104.160156 459.546875 L 274.199219 459.546875 Z M 110.523438 142.601562 L 703.746094 142.601562 C 713.054688 142.601562 721.511719 146.398438 727.636719 152.519531 C 733.761719 158.644531 737.5625 167.09375 737.5625 176.398438 L 737.5625 244.96875 C 737.5625 250.085938 733.410156 254.234375 728.285156 254.234375 L 85.988281 254.234375 C 80.863281 254.234375 76.710938 250.085938 76.710938 244.96875 L 76.710938 176.398438 C 76.710938 167.09375 80.515625 158.644531 86.636719 152.519531 C 92.761719 146.398438 101.214844 142.601562 110.523438 142.601562 Z M 703.746094 161.140625 L 110.523438 161.140625 C 106.339844 161.140625 102.523438 162.863281 99.75 165.632812 C 96.980469 168.402344 95.261719 172.214844 95.261719 176.398438 L 95.261719 235.695312 L 719.015625 235.695312 L 719.015625 176.398438 C 719.015625 172.214844 717.292969 168.402344 714.523438 165.632812 C 711.75 162.863281 707.933594 161.140625 703.746094 161.140625 Z M 501.402344 697.132812 C 496.011719 689.976562 491.625 682.257812 488.15625 674.277344 C 482.824219 662.019531 479.648438 649.132812 478.285156 636.742188 L 331.710938 636.742188 C 330.347656 649.132812 327.175781 662.019531 321.84375 674.277344 C 318.371094 682.257812 313.988281 689.976562 308.597656 697.132812 Z M 550.207031 715.675781 L 259.792969 715.675781 C 257.546875 715.675781 255.496094 716.601562 254.007812 718.089844 C 252.511719 719.585938 251.589844 721.632812 251.589844 723.875 L 251.589844 732.082031 L 558.410156 732.082031 L 558.410156 723.875 C 558.410156 721.632812 557.488281 719.585938 555.992188 718.089844 C 554.503906 716.601562 552.453125 715.675781 550.207031 715.675781 Z M 405 558.0625 C 411.667969 558.0625 417.714844 560.773438 422.09375 565.148438 L 422.113281 565.167969 C 426.488281 569.546875 429.199219 575.589844 429.199219 582.257812 C 429.199219 588.9375 426.488281 594.984375 422.113281 599.363281 L 421.832031 599.617188 C 417.476562 603.847656 411.539062 606.449219 405 606.449219 C 398.320312 606.449219 392.265625 603.738281 387.886719 599.363281 C 383.507812 594.984375 380.800781 588.9375 380.800781 582.257812 C 380.800781 575.589844 383.507812 569.546875 387.886719 565.167969 L 387.902344 565.148438 C 392.285156 560.773438 398.332031 558.0625 405 558.0625 Z M 415.5625 571.695312 C 412.863281 569.003906 409.128906 567.335938 405 567.335938 C 400.871094 567.335938 397.136719 569.003906 394.4375 571.695312 C 391.738281 574.394531 390.074219 578.128906 390.074219 582.257812 C 390.074219 586.378906 391.742188 590.109375 394.445312 592.808594 C 397.144531 595.503906 400.875 597.175781 405 597.175781 C 409.027344 597.175781 412.675781 595.59375 415.359375 593.019531 L 415.554688 592.808594 C 418.253906 590.109375 419.925781 586.378906 419.925781 582.257812 C 419.925781 578.128906 418.257812 574.394531 415.5625 571.695312 Z M 43.964844 99.09375 L 772.214844 99.09375 L 772.214844 533.8125 L 37.78125 533.8125 L 37.78125 99.09375 Z M 759.847656 111.457031 L 50.148438 111.457031 L 50.148438 521.453125 L 759.847656 521.453125 Z M 764.496094 77.617188 L 45.503906 77.617188 C 38.101562 77.617188 31.359375 80.652344 26.472656 85.542969 C 21.585938 90.429688 18.550781 97.160156 18.550781 104.558594 L 18.550781 591.261719 C 18.550781 598.660156 21.585938 605.394531 26.472656 610.28125 C 31.359375 615.167969 38.101562 618.203125 45.503906 618.203125 L 764.496094 618.203125 C 771.898438 618.203125 778.640625 615.167969 783.527344 610.28125 C 788.414062 605.394531 791.449219 598.660156 791.449219 591.261719 L 791.449219 104.558594 C 791.449219 97.160156 788.414062 90.429688 783.527344 85.542969 C 778.640625 80.652344 771.898438 77.617188 764.496094 77.617188 Z M 764.496094 77.617188 " fill-opacity="1" fill-rule="nonzero"/></g></svg>