<svg xmlns="http://www.w3.org/2000/svg" xmlns:xlink="http://www.w3.org/1999/xlink" width="1080" zoomAndPan="magnify" viewBox="0 0 810 809.999993" height="1080" preserveAspectRatio="xMidYMid meet" version="1.0"><defs><clipPath id="6a1ff49949"><path d="M 324 59.738281 L 486 59.738281 L 486 222 L 324 222 Z M 324 59.738281 " clip-rule="nonzero"/></clipPath><clipPath id="497f450aa7"><path d="M 648 588 L 810 588 L 810 750.488281 L 648 750.488281 Z M 648 588 " clip-rule="nonzero"/></clipPath></defs><path fill="#000000" d="M 792.097656 385.734375 C 796.808594 385.734375 801.324219 387.605469 804.648438 390.929688 C 807.96875 394.269531 809.839844 398.769531 809.839844 403.484375 C 809.839844 408.195312 807.96875 412.710938 804.648438 416.035156 C 801.324219 419.359375 796.808594 421.230469 792.097656 421.230469 L 147.214844 421.230469 C 142.519531 421.230469 138.003906 419.359375 134.664062 416.035156 C 131.34375 412.710938 129.472656 408.195312 129.472656 403.484375 C 129.472656 398.769531 131.34375 394.269531 134.664062 390.929688 C 138.003906 387.605469 142.519531 385.734375 147.214844 385.734375 Z M 792.097656 385.734375 " fill-opacity="1" fill-rule="nonzero"/><path fill="#000000" d="M 792.097656 119.632812 C 796.808594 119.632812 801.324219 121.503906 804.648438 124.828125 C 807.96875 128.152344 809.839844 132.667969 809.839844 137.378906 C 809.839844 142.09375 807.96875 146.609375 804.648438 149.933594 C 801.324219 153.257812 796.808594 155.128906 792.097656 155.128906 L 471.277344 155.128906 C 466.566406 155.128906 462.050781 153.257812 458.726562 149.933594 C 455.40625 146.609375 453.535156 142.09375 453.535156 137.378906 C 453.535156 132.667969 455.40625 128.152344 458.726562 124.828125 C 462.050781 121.503906 466.566406 119.632812 471.277344 119.632812 Z M 792.097656 119.632812 " fill-opacity="1" fill-rule="nonzero"/><path fill="#000000" d="M 656.769531 651.835938 C 661.464844 651.835938 665.980469 653.707031 669.320312 657.03125 C 672.640625 660.371094 674.511719 664.875 674.511719 669.585938 C 674.511719 674.296875 672.640625 678.816406 669.320312 682.136719 C 665.980469 685.460938 661.464844 687.335938 656.769531 687.335938 L 18.175781 687.335938 C 13.480469 687.335938 8.964844 685.460938 5.625 682.136719 C 2.304688 678.816406 0.433594 674.296875 0.433594 669.585938 C 0.433594 664.875 2.304688 660.371094 5.625 657.03125 C 8.964844 653.707031 13.480469 651.835938 18.175781 651.835938 Z M 656.769531 651.835938 " fill-opacity="1" fill-rule="nonzero"/><g clip-path="url(#6a1ff49949)"><path fill="#000000" d="M 324.433594 140.414062 C 324.433594 119.003906 332.933594 98.460938 348.0625 83.328125 C 363.191406 68.175781 383.742188 59.671875 405.144531 59.671875 C 426.550781 59.671875 447.082031 68.175781 462.210938 83.328125 C 477.34375 98.460938 485.859375 119.003906 485.859375 140.414062 C 485.859375 161.824219 477.34375 182.367188 462.210938 197.5 C 447.082031 212.652344 426.550781 221.15625 405.144531 221.15625 C 383.742188 221.15625 363.191406 212.652344 348.0625 197.5 C 332.933594 182.367188 324.433594 161.824219 324.433594 140.414062 Z M 359.917969 140.414062 C 359.917969 128.425781 364.675781 116.90625 373.160156 108.417969 C 381.644531 99.945312 393.144531 95.171875 405.144531 95.171875 C 417.128906 95.171875 428.644531 99.945312 437.128906 108.417969 C 445.597656 116.90625 450.371094 128.425781 450.371094 140.414062 C 450.371094 152.402344 445.597656 163.921875 437.128906 172.410156 C 428.644531 180.882812 417.128906 185.65625 405.144531 185.65625 C 393.144531 185.65625 381.644531 180.882812 373.160156 172.410156 C 364.675781 163.921875 359.917969 152.402344 359.917969 140.414062 Z M 359.917969 140.414062 " fill-opacity="1" fill-rule="evenodd"/></g><path fill="#000000" d="M 0.160156 403.546875 C 0.160156 382.152344 8.660156 361.597656 23.789062 346.460938 C 38.917969 331.324219 59.46875 322.804688 80.871094 322.804688 C 102.261719 322.804688 122.808594 331.324219 137.9375 346.460938 C 153.070312 361.597656 161.585938 382.152344 161.585938 403.546875 C 161.585938 424.957031 153.070312 445.515625 137.9375 460.648438 C 122.808594 475.785156 102.261719 484.289062 80.871094 484.289062 C 59.46875 484.289062 38.917969 475.785156 23.789062 460.648438 C 8.660156 445.515625 0.160156 424.957031 0.160156 403.546875 Z M 35.644531 403.546875 C 35.644531 391.558594 40.402344 380.039062 48.886719 371.550781 C 57.371094 363.082031 68.871094 358.304688 80.871094 358.304688 C 92.855469 358.304688 104.375 363.082031 112.859375 371.550781 C 121.324219 380.039062 126.101562 391.558594 126.101562 403.546875 C 126.101562 415.550781 121.324219 427.054688 112.859375 435.542969 C 104.375 444.03125 92.855469 448.789062 80.871094 448.789062 C 68.871094 448.789062 57.371094 444.03125 48.886719 435.542969 C 40.402344 427.054688 35.644531 415.550781 35.644531 403.546875 Z M 35.644531 403.546875 " fill-opacity="1" fill-rule="evenodd"/><g clip-path="url(#497f450aa7)"><path fill="#000000" d="M 648.414062 669.648438 C 648.414062 648.238281 656.929688 627.699219 672.0625 612.5625 C 687.191406 597.414062 707.738281 588.910156 729.128906 588.910156 C 750.53125 588.910156 771.082031 597.414062 786.210938 612.5625 C 801.339844 627.699219 809.839844 648.238281 809.839844 669.648438 C 809.839844 691.0625 801.339844 711.601562 786.210938 726.738281 C 771.082031 741.886719 750.53125 750.390625 729.128906 750.390625 C 707.738281 750.390625 687.191406 741.886719 672.0625 726.738281 C 656.929688 711.601562 648.414062 691.0625 648.414062 669.648438 Z M 683.898438 669.648438 C 683.898438 657.660156 688.675781 646.140625 697.140625 637.652344 C 705.625 629.183594 717.144531 624.40625 729.128906 624.40625 C 741.128906 624.40625 752.628906 629.183594 761.113281 637.652344 C 769.597656 646.140625 774.355469 657.660156 774.355469 669.648438 C 774.355469 681.636719 769.597656 693.160156 761.113281 701.644531 C 752.628906 710.117188 741.128906 714.894531 729.128906 714.894531 C 717.144531 714.894531 705.625 710.117188 697.140625 701.644531 C 688.675781 693.160156 683.898438 681.636719 683.898438 669.648438 Z M 683.898438 669.648438 " fill-opacity="1" fill-rule="evenodd"/></g><path fill="#000000" d="M 337.398438 119.632812 C 342.09375 119.632812 346.609375 121.503906 349.949219 124.828125 C 353.273438 128.152344 355.144531 132.667969 355.144531 137.378906 C 355.144531 142.09375 353.273438 146.609375 349.949219 149.933594 C 346.609375 153.257812 342.09375 155.128906 337.398438 155.128906 L 18.175781 155.128906 C 13.480469 155.128906 8.964844 153.257812 5.625 149.933594 C 2.304688 146.609375 0.433594 142.09375 0.433594 137.378906 C 0.433594 132.667969 2.304688 128.152344 5.625 124.828125 C 8.964844 121.503906 13.480469 119.632812 18.175781 119.632812 Z M 337.398438 119.632812 " fill-opacity="1" fill-rule="nonzero"/></svg>