<svg width="37" height="37" viewBox="0 0 37 37" fill="none" xmlns="http://www.w3.org/2000/svg">
<mask id="mask0_121_742" style="mask-type:luminance" maskUnits="userSpaceOnUse" x="0" y="0" width="37" height="37">
<path d="M0 0H36.9779V37H0V0Z" fill="white"/>
</mask>
<g mask="url(#mask0_121_742)">
<path d="M36.4142 25.6555H19.1904L21.1463 23.7005L26.1066 18.7433C26.1073 18.7427 26.1082 18.7424 26.1089 18.7417C26.1098 18.7411 26.1098 18.74 26.1105 18.7393L31.4424 13.4108C31.5486 13.305 31.6083 13.1615 31.6083 13.0113C31.6083 12.8614 31.5485 12.7172 31.4423 12.6113L24.2133 5.3949C24.1073 5.28905 23.9634 5.22997 23.8137 5.22997H23.8133C23.6632 5.22997 23.5192 5.28977 23.4133 5.39561L18.0984 10.7113C18.0937 10.7156 18.0876 10.7168 18.083 10.7215C18.0785 10.7261 18.0771 10.7324 18.0728 10.737L13.1634 15.647C13.1488 15.6589 13.1307 15.6641 13.1172 15.6778C13.1034 15.6914 13.0983 15.7094 13.0863 15.7241L11.3546 17.4497V0.519208C11.3546 0.206846 11.1011 -0.0458984 10.7887 -0.0458984H0.569711C0.257349 -0.0458984 0.00389037 0.206846 0.00389037 0.519208V29.101L0.00621077 30.7533C0.00496131 30.7672 0.00656777 30.7802 0.00567528 30.794C0.00567528 30.797 0.00389037 30.7995 0.00389037 30.8027V30.9239C0.00264092 31.0051 -0.00164289 31.0867 0.000677507 31.1677L0.00389037 31.3268C0.00389037 33.604 1.32973 35.6108 3.3881 36.5057C3.41934 36.5229 3.45414 36.5404 3.51198 36.5675L3.51233 36.5669C3.51465 36.568 3.51715 36.5684 3.51947 36.5694C3.53339 36.5752 3.54553 36.5834 3.55945 36.5889C3.57873 36.5966 3.59819 36.6032 3.61729 36.6084C3.63103 36.6135 3.64424 36.618 3.65566 36.6221C3.66387 36.6253 3.67226 36.6285 3.68065 36.6317L3.68029 36.6325C3.78007 36.6689 3.87985 36.7046 3.97962 36.7319C3.98123 36.7326 3.98284 36.7326 3.98409 36.7331C4.00301 36.739 4.02211 36.7449 4.04103 36.7494L4.20863 36.8006L4.20899 36.7999C4.22719 36.8065 4.24611 36.8117 4.26361 36.8168C4.27342 36.8199 4.28378 36.8227 4.29395 36.8254C4.29431 36.8256 4.29449 36.8258 4.29484 36.8258C4.29573 36.8259 4.29645 36.8261 4.29734 36.8263C4.29895 36.8268 4.30055 36.8274 4.30234 36.8277C4.31787 36.8317 4.335 36.8338 4.35053 36.8375C4.49743 36.8745 4.64415 36.9073 4.79105 36.9296C4.80158 36.9313 4.81193 36.9311 4.82247 36.9321C4.82514 36.9323 4.82764 36.9334 4.83032 36.9336C4.84263 36.9362 4.85495 36.9382 4.86745 36.9395C5.09342 36.9686 5.36419 36.9978 5.65602 36.9978H36.4142C36.7263 36.9978 36.98 36.7453 36.98 36.4329V26.2205C36.98 25.9081 36.7265 25.6555 36.4142 25.6555ZM28.3095 26.7856V35.8678H22.4225V26.7856H28.3095ZM21.291 26.7856V35.8678H15.4008V29.4426L16.1822 28.6617C16.1824 28.6615 16.1828 28.6615 16.1831 28.6612L18.0598 26.7856H21.291ZM10.2229 18.8113V21.5195H1.13535V15.6332H10.2229V18.8113ZM11.3146 31.9274C11.3174 31.9035 11.3164 31.879 11.3189 31.8549C11.3399 31.6566 11.3544 31.4574 11.3544 31.2572V24.6351L14.983 28.2612L12.8809 30.3622L11.3146 31.9274ZM10.2229 14.5032H1.13535V8.62079H10.2229V14.5032ZM1.13535 22.6497H10.2229V28.5361H1.13535V22.6497ZM23.8142 6.59455L30.2421 13.0113L25.7084 17.5425L19.2857 11.1236L23.8142 6.59455ZM18.4862 11.9231L24.9087 18.3415L20.7463 22.5014L14.3249 16.0846L18.4862 11.9231ZM13.5241 16.8835L19.9463 23.3011L15.783 27.4617L11.3546 23.036V19.0456L13.5241 16.8835ZM10.2229 1.08431V7.49075H1.13535V1.08431H10.2229ZM1.13535 31.3268L1.13196 31.1585C1.13214 31.1526 1.13535 31.1476 1.13535 31.1415V29.6659H10.2229V31.2572C10.2229 31.7571 10.1401 32.2528 9.97411 32.7372C9.84863 33.1185 9.66567 33.4842 9.42774 33.8264C8.96384 34.5045 8.32787 35.0383 7.57856 35.3755C6.64201 35.821 5.76062 35.9126 5.04576 35.8223C5.01684 35.8166 4.9906 35.8126 4.96722 35.81C4.95116 35.806 4.93563 35.8028 4.9201 35.8003L4.92046 35.7984C4.80283 35.7782 4.6852 35.7575 4.57472 35.7302C4.57454 35.7302 4.57436 35.7302 4.57418 35.7302C4.56936 35.7288 4.56472 35.7273 4.56008 35.7263L4.36517 35.6659C4.345 35.6593 4.32411 35.6536 4.3027 35.649C4.2952 35.647 4.2877 35.6445 4.28021 35.6425L4.28056 35.6418C4.22041 35.6249 4.16026 35.6034 4.09993 35.582C4.08101 35.5729 4.06155 35.5653 4.04138 35.5579L3.89466 35.4944C3.85414 35.4742 3.81184 35.4599 3.76954 35.4503C2.16186 34.721 1.13535 33.1265 1.13535 31.3268ZM9.11485 35.7582C9.27585 35.6361 9.42881 35.5055 9.57607 35.3664C9.64497 35.3013 9.71458 35.2383 9.78026 35.1697C9.94805 34.9941 10.103 34.807 10.2476 34.6096C10.2734 34.5743 10.3061 34.5453 10.3313 34.5091L14.2693 30.5734V35.8678H8.98562C9.03167 35.8351 9.06969 35.7923 9.11485 35.7582ZM35.8485 35.8678H29.441V26.7856H35.8485V35.8678Z" fill="#2E8886"/>
</g>
<path d="M5.65615 34.7114C6.7287 34.7114 7.60117 33.8397 7.60117 32.7675C7.60117 31.6958 6.7287 30.8242 5.65615 30.8242C4.58341 30.8242 3.71094 31.6958 3.71094 32.7675C3.71094 33.8397 4.58341 34.7114 5.65615 34.7114ZM5.65615 31.9543C6.10487 31.9543 6.46971 32.3193 6.46971 32.7675C6.46971 33.2162 6.10487 33.5812 5.65615 33.5812C5.20742 33.5812 4.8424 33.2162 4.8424 32.7675C4.8424 32.3193 5.20742 31.9543 5.65615 31.9543Z" fill="#2E8886"/>
</svg>
