<svg width="13" height="13" viewBox="0 0 13 13" fill="none" xmlns="http://www.w3.org/2000/svg">
<path d="M3.82245 0C1.72424 0 0 1.72192 0 3.82245V9.17755C0 11.2758 1.72192 13 3.82245 13H9.17755C11.2758 13 13 11.2781 13 9.17755V3.82245C13 1.72424 11.2781 0 9.17755 0H3.82245ZM3.82245 1.18182H9.17755C10.6387 1.18182 11.8182 2.36133 11.8182 3.82245V9.17755C11.8182 10.6387 10.6387 11.8182 9.17755 11.8182H3.82245C2.36133 11.8182 1.18182 10.6387 1.18182 9.17755V3.82245C1.18182 2.36133 2.36133 1.18182 3.82245 1.18182ZM9.99005 2.47443C9.69232 2.47443 9.45453 2.71216 9.45453 3.00995C9.45453 3.30768 9.69232 3.54547 9.99005 3.54547C10.2878 3.54547 10.5256 3.30768 10.5256 3.00995C10.5256 2.71216 10.2878 2.47443 9.99005 2.47443ZM6.5 2.95453C4.54956 2.95453 2.95453 4.54956 2.95453 6.5C2.95453 8.45044 4.54956 10.0455 6.5 10.0455C8.45044 10.0455 10.0455 8.45044 10.0455 6.5C10.0455 4.54956 8.45044 2.95453 6.5 2.95453ZM6.5 4.13635C7.81342 4.13635 8.86365 5.18658 8.86365 6.5C8.86365 7.81342 7.81342 8.86365 6.5 8.86365C5.18658 8.86365 4.13635 7.81342 4.13635 6.5C4.13635 5.18658 5.18658 4.13635 6.5 4.13635Z" fill="white"/>
</svg>
