<svg width="44" height="36" viewBox="0 0 44 36" fill="none" xmlns="http://www.w3.org/2000/svg">
<mask id="mask0_121_735" style="mask-type:luminance" maskUnits="userSpaceOnUse" x="0" y="0" width="44" height="36">
<path d="M0 0H44V35.405H0V0Z" fill="white"/>
</mask>
<g mask="url(#mask0_121_735)">
<path d="M40.1495 26.9373C40.6241 26.9373 41.0118 27.3221 41.0118 27.7994C41.0118 28.274 40.6241 28.6616 40.1467 28.6616C39.6721 28.6616 39.2846 28.274 39.2846 27.7994C39.2846 27.3221 39.6721 26.9373 40.1495 26.9373ZM28.7754 27.0525C29.25 27.0525 29.6375 27.4401 29.6375 27.9147C29.6375 28.3893 29.25 28.7768 28.7754 28.7768C28.2978 28.7768 27.913 28.3893 27.913 27.9147C27.913 27.4401 28.2978 27.0525 28.7754 27.0525ZM42.4889 32.256C42.9635 32.256 43.3511 32.6408 43.3511 33.1182C43.3511 33.5928 42.9635 33.9803 42.4889 33.9803C42.0116 33.9803 41.624 33.5928 41.624 33.1182C41.624 32.6408 42.0116 32.256 42.4889 32.256ZM17.9964 15.4548H6.94246V9.11692C6.94246 6.07003 9.42235 3.59035 12.4695 3.59035C15.5166 3.59035 17.9964 6.07003 17.9964 9.11692V15.4548ZM14.8004 32.0341H10.0935L11.2842 23.8793C10.5064 23.4636 9.97548 22.6438 9.97548 21.7001C9.97548 20.3354 11.0822 19.229 12.447 19.229C13.8119 19.229 14.9184 20.3354 14.9184 21.7001C14.9184 22.6438 14.3905 23.4636 13.6124 23.8793L14.8004 32.0341ZM39.6945 1.41967C40.1691 1.41967 40.5568 1.8072 40.5568 2.28179C40.5568 2.75916 40.1691 3.14669 39.6945 3.14669C39.2171 3.14669 38.8296 2.75916 38.8296 2.28179C38.8296 1.8072 39.2171 1.41967 39.6945 1.41967ZM30.6599 8.60305C31.1345 8.60305 31.522 8.99058 31.522 9.46795C31.522 9.94255 31.1345 10.3301 30.6599 10.3301C30.1851 10.3301 29.7975 9.94255 29.7975 9.46795C29.7975 8.99058 30.1851 8.60305 30.6599 8.60305ZM39.2395 11.2398C39.7141 11.2398 40.1019 11.6273 40.1019 12.1019C40.1019 12.5793 39.7141 12.964 39.2395 12.964C38.7622 12.964 38.3746 12.5793 38.3746 12.1019C38.3746 11.6273 38.7622 11.2398 39.2395 11.2398ZM42.4889 16.5892C42.9635 16.5892 43.3511 16.9768 43.3511 17.4514C43.3511 17.9287 42.9635 18.3163 42.4889 18.3163C42.0116 18.3163 41.624 17.9287 41.624 17.4514C41.624 16.9768 42.0116 16.5892 42.4889 16.5892ZM37.1585 19.1588C37.6331 19.1588 38.0208 19.5463 38.0208 20.0237C38.0208 20.4983 37.6331 20.8858 37.1585 20.8858C36.6839 20.8858 36.2964 20.4983 36.2964 20.0237C36.2964 19.5463 36.6839 19.1588 37.1585 19.1588ZM28.7754 19.1588C29.25 19.1588 29.6375 19.5463 29.6375 20.0237C29.6375 20.4983 29.25 20.8858 28.7754 20.8858C28.2978 20.8858 27.913 20.4983 27.913 20.0237C27.913 19.5463 28.2978 19.1588 28.7754 19.1588ZM42.4889 21.7816C42.9635 21.7816 43.3511 22.1692 43.3511 22.6438C43.3511 23.1184 42.9635 23.5059 42.4889 23.5059C42.0116 23.5059 41.624 23.1184 41.624 22.6438C41.624 22.1692 42.0116 21.7816 42.4889 21.7816ZM41.0118 22.9694C41.1605 23.6463 41.7644 24.1574 42.4889 24.1574C43.3231 24.1574 44 23.4777 44 22.6438C44 21.8098 43.3231 21.1301 42.4889 21.1301C41.7644 21.1301 41.1605 21.6412 41.0118 22.3179H24.9417V20.3327H27.2952C27.4384 21.0179 28.0479 21.5345 28.7754 21.5345C29.6093 21.5345 30.289 20.8578 30.289 20.0237C30.289 19.1897 29.6093 18.51 28.7754 18.51C28.0564 18.51 27.4553 19.0128 27.3008 19.6839H24.9417V17.6985H31.4996L34.1506 20.3467H35.6813C35.8301 21.0262 36.4368 21.5345 37.1585 21.5345C37.9926 21.5345 38.6723 20.8578 38.6723 20.0237C38.6723 19.1897 37.9926 18.51 37.1585 18.51C36.4368 18.51 35.8301 19.0183 35.6813 19.698H34.4204L31.7691 17.047H24.8546C24.5879 16.1287 23.7398 15.4548 22.7343 15.4548H21.5913V15.0617H34.6197L37.3354 17.7772H41.0118C41.1605 18.4567 41.7644 18.965 42.4889 18.965C43.3231 18.965 44 18.2855 44 17.4514C44 16.6174 43.3231 15.9407 42.4889 15.9407C41.7644 15.9407 41.1605 16.449 41.0118 17.1285H37.6051L34.8892 14.413H21.5913V12.4278H37.7624C37.9111 13.1045 38.515 13.6155 39.2395 13.6155C40.0737 13.6155 40.7506 12.9359 40.7506 12.1019C40.7506 11.268 40.0737 10.5883 39.2395 10.5883C38.515 10.5883 37.9111 11.0994 37.7624 11.7763H21.5913V9.79083H29.1825C29.3315 10.4705 29.938 10.9786 30.6599 10.9786C31.4938 10.9786 32.1735 10.3019 32.1735 9.46795C32.1735 8.63378 31.4938 7.95433 30.6599 7.95433C29.938 7.95433 29.3315 8.46264 29.1825 9.1421H21.5913V9.11692C21.5913 8.44578 21.5184 7.78852 21.3807 7.15686H30.7945L35.3442 2.60765H38.2174C38.3661 3.28711 38.97 3.79542 39.6945 3.79542C40.5287 3.79542 41.2056 3.11597 41.2056 2.28179C41.2056 1.44784 40.5287 0.771153 39.6945 0.771153C38.97 0.771153 38.3661 1.27925 38.2174 1.95892H35.0746L30.525 6.50536H21.2121C20.086 2.74508 16.5923 -0.00390625 12.4695 -0.00390625C7.43946 -0.00390625 3.34757 4.08756 3.34757 9.11692V15.4548H2.20461C0.988457 15.4548 0 16.4405 0 17.6592V33.1995C0 34.4154 0.988457 35.4039 2.20461 35.4039H22.7343C23.9532 35.4039 24.9417 34.4154 24.9417 33.1995V30.8743H36.5689L39.1386 33.4438H41.0118C41.1605 34.1207 41.7644 34.6318 42.4889 34.6318C43.3231 34.6318 44 33.9521 44 33.1182C44 32.284 43.3231 31.6045 42.4889 31.6045C41.7644 31.6045 41.1605 32.1156 41.0118 32.7923H39.4053L36.8384 30.2258H24.9417V28.2403H27.298C27.447 28.9172 28.0534 29.4281 28.7754 29.4281C29.6093 29.4281 30.289 28.7486 30.289 27.9147C30.289 27.0805 29.6093 26.401 28.7754 26.401C28.0534 26.401 27.447 26.9121 27.298 27.5888H24.9417V25.6036H30.525L33.0442 28.1253H38.6695C38.8211 28.802 39.425 29.3131 40.1467 29.3131C40.9836 29.3131 41.6605 28.6334 41.6605 27.7994C41.6605 26.9655 40.9836 26.2858 40.1495 26.2858C39.425 26.2858 38.8211 26.7969 38.6695 27.4738H33.3137L30.7945 24.9549H24.9417V22.9694H41.0118Z" fill="#F1BB59"/>
</g>
</svg>
