<svg width="35" height="36" viewBox="0 0 35 36" fill="none" xmlns="http://www.w3.org/2000/svg">
<path d="M10.4486 25.0983C10.3017 25.0983 10.1607 25.0396 10.0549 24.9338C9.90796 24.781 9.85516 24.5635 9.91971 24.358L12.9991 15.2672C13.0578 15.085 13.2106 14.9439 13.3986 14.9027C13.5867 14.8557 13.7865 14.9145 13.9215 15.0497L19.9331 21.0788C20.0683 21.2141 20.1271 21.4138 20.0801 21.6019C20.0331 21.7899 19.8978 21.9427 19.7158 22.0014L10.619 25.069C10.5603 25.0866 10.5015 25.0983 10.4428 25.0983H10.4486ZM13.7747 16.4777L11.3419 23.6528L18.5169 21.2376L13.7747 16.4836V16.4777Z" fill="#DC146D"/>
<path d="M19.5449 22.0307C19.398 22.0307 19.257 21.972 19.1513 21.8662L13.1397 15.8369C12.9222 15.6196 12.9222 15.267 13.1397 15.0495L27.2606 0.940159C27.8542 0.335017 28.6533 0 29.5114 0C30.3693 0 31.1684 0.335017 31.7679 0.940159L34.0596 3.22022C34.6709 3.83149 34.9999 4.64238 34.9999 5.50027C34.9999 6.35238 34.6591 7.15168 34.0596 7.74507L19.9386 21.8662C19.8329 21.972 19.6918 22.0307 19.5449 22.0307ZM14.3208 15.4433L19.5449 20.685L33.2782 6.95769C33.6718 6.56987 33.8893 6.05278 33.8893 5.50027C33.8893 4.93618 33.6718 4.41313 33.2782 4.01356L30.9804 1.7335C30.1988 0.940159 28.8296 0.94612 28.054 1.7335L14.3208 15.4491V15.4433Z" fill="#DC146D"/>
<path d="M32.021 9.55495C31.8742 9.55495 31.733 9.49619 31.6273 9.39042L25.6157 3.36114C25.5099 3.25537 25.4512 3.11435 25.4512 2.96753C25.4512 2.82055 25.5099 2.67952 25.6157 2.57375L27.2671 0.940057C27.8605 0.340706 28.6598 0.00585938 29.5177 0.00585938C30.3756 0.00585938 31.1749 0.340706 31.7743 0.946018L34.0661 3.22607C35.3119 4.47179 35.3119 6.49926 34.0661 7.74497L32.4148 9.39638C32.3091 9.50215 32.168 9.56091 32.021 9.56091V9.55495ZM26.7969 2.96753L32.021 8.20347L33.2727 6.95163C34.0836 6.14074 34.0836 4.81855 33.2727 4.00767L30.9751 1.72761C30.1935 0.934266 28.8243 0.940057 28.0485 1.72761L26.7911 2.97332L26.7969 2.96753Z" fill="#DC146D"/>
<path d="M26.3088 35.2412H3.67275C1.64545 35.2412 0 33.6017 0 31.5861V8.93255C0 6.91683 1.64545 5.27734 3.67275 5.27734H19.3451C19.6507 5.27734 19.9034 5.5301 19.9034 5.83565C19.9034 6.1412 19.6566 6.39395 19.3451 6.39395H3.67275C2.26234 6.39395 1.11644 7.5339 1.11644 8.93255V31.5861C1.11644 32.9848 2.26234 34.1247 3.67275 34.1247H26.3088C27.719 34.1247 28.8649 32.9848 28.8649 31.5861V15.5142C28.8649 15.2085 29.1117 14.9559 29.4232 14.9559C29.7347 14.9559 29.9815 15.2085 29.9815 15.5142V31.5861C29.9815 33.6017 28.3361 35.2413 26.3088 35.2413V35.2412Z" fill="#DC146D"/>
</svg>
