<svg xmlns="http://www.w3.org/2000/svg" xmlns:xlink="http://www.w3.org/1999/xlink" width="1080" zoomAndPan="magnify" viewBox="0 0 810 809.999993" height="1080" preserveAspectRatio="xMidYMid meet" version="1.0"><defs><clipPath id="55713b2a55"><path d="M 1 2 L 809 2 L 809 808.761719 L 1 808.761719 Z M 1 2 " clip-rule="nonzero"/></clipPath></defs><g clip-path="url(#55713b2a55)"><path fill="#100f0d" d="M 642.007812 776.433594 L 595.757812 730.203125 L 656.574219 669.417969 C 661.824219 664.171875 661.824219 655.671875 656.574219 650.425781 C 651.324219 645.175781 642.824219 645.175781 637.574219 650.425781 L 576.765625 711.207031 L 524.84375 659.300781 L 585.644531 598.507812 C 590.894531 593.261719 590.894531 584.761719 585.644531 579.515625 C 580.394531 574.273438 571.894531 574.273438 566.644531 579.515625 L 505.84375 640.304688 L 453.921875 588.398438 L 514.726562 527.597656 C 519.976562 522.359375 519.976562 513.859375 514.726562 508.609375 C 509.480469 503.363281 500.976562 503.363281 495.730469 508.609375 L 434.921875 569.402344 L 393.996094 528.496094 L 527.9375 394.597656 L 775.9375 642.53125 Z M 90.039062 639.109375 L 161.710938 710.757812 L 55.34375 745.453125 Z M 587.070312 130.242188 L 619.386719 162.558594 L 135.371094 646.441406 L 103.046875 614.132812 Z M 241.152344 375.6875 L 301.960938 314.886719 C 307.207031 309.640625 307.207031 301.148438 301.960938 295.902344 C 296.710938 290.652344 288.207031 290.652344 282.960938 295.902344 L 222.152344 356.691406 L 170.222656 304.785156 L 231.035156 244 C 236.277344 238.75 236.277344 230.253906 231.035156 225.003906 C 225.789062 219.757812 217.285156 219.757812 212.039062 225.003906 L 151.222656 285.789062 L 99.300781 233.878906 L 160.105469 173.089844 C 165.355469 167.839844 165.355469 159.34375 160.105469 154.09375 C 154.859375 148.847656 146.355469 148.847656 141.109375 154.09375 L 80.304688 214.886719 L 34.0625 168.65625 L 167.992188 34.765625 L 406.285156 272.988281 L 272.359375 406.886719 Z M 661.230469 56.101562 C 683.546875 33.792969 722.527344 33.761719 744.871094 56.101562 C 756.046875 67.269531 762.199219 82.113281 762.199219 97.917969 C 762.199219 113.707031 756.046875 128.5625 744.871094 139.734375 L 689.714844 194.878906 L 606.070312 111.253906 Z M 186.703125 697.746094 L 154.371094 665.429688 L 638.386719 181.546875 L 670.714844 213.871094 Z M 804.433594 633.027344 L 546.929688 375.601562 L 763.867188 158.722656 C 780.121094 142.488281 789.070312 120.886719 789.070312 97.917969 C 789.070312 74.933594 780.121094 53.347656 763.867188 37.113281 C 730.304688 3.558594 675.738281 3.585938 642.230469 37.113281 L 577.601562 101.71875 C 577.59375 101.734375 577.574219 101.742188 577.566406 101.746094 C 577.550781 101.761719 577.546875 101.777344 577.539062 101.789062 L 425.285156 253.992188 L 177.492188 6.277344 C 172.246094 1.027344 163.742188 1.027344 158.492188 6.277344 L 5.566406 159.160156 C 0.320312 164.410156 0.320312 172.90625 5.566406 178.148438 L 253.359375 425.878906 L 74.550781 604.632812 C 74.445312 604.742188 74.40625 604.890625 74.308594 605 C 73.703125 605.644531 73.300781 606.445312 72.828125 607.210938 C 72.359375 607.96875 71.839844 608.667969 71.535156 609.503906 C 71.472656 609.675781 71.332031 609.796875 71.269531 609.976562 L 21.597656 762.257812 C 20.035156 767.058594 21.300781 772.339844 24.878906 775.914062 C 27.4375 778.46875 30.871094 779.847656 34.375 779.847656 C 35.765625 779.847656 37.171875 779.625 38.546875 779.191406 L 190.875 729.515625 C 191.027344 729.464844 191.140625 729.335938 191.292969 729.277344 C 192.09375 728.988281 192.78125 728.464844 193.523438 728.015625 C 194.324219 727.527344 195.160156 727.117188 195.824219 726.484375 C 195.9375 726.378906 196.089844 726.347656 196.199219 726.242188 L 375.003906 547.488281 L 632.507812 804.921875 C 635.03125 807.445312 638.445312 808.855469 642.007812 808.855469 C 645.574219 808.855469 648.988281 807.445312 651.507812 804.921875 L 804.433594 652.023438 C 809.679688 646.777344 809.679688 638.277344 804.433594 633.027344 " fill-opacity="1" fill-rule="nonzero"/></g></svg>