<svg width="514" height="539" viewBox="0 0 514 539" fill="none" xmlns="http://www.w3.org/2000/svg">
<mask id="mask0_36_4698" style="mask-type:luminance" maskUnits="userSpaceOnUse" x="0" y="0" width="514" height="539">
<path d="M0 112.116L390.572 2.39761e-05L513.035 426.614L122.462 538.731L0 112.116Z" fill="white"/>
</mask>
<g mask="url(#mask0_36_4698)">
<path d="M463.848 343.585L401.668 406.809L339.485 470.032C328.649 481.053 307.65 487.081 292.617 483.486L206.369 462.871L120.122 442.254C105.09 438.661 89.4819 423.878 85.2879 409.268L37.1535 241.585C32.9594 226.975 38.3505 206.164 49.1875 195.145L111.367 131.921L173.55 68.6984C184.386 57.6771 205.386 51.6492 220.418 55.2447L306.666 75.8591L392.913 96.4763C407.945 100.07 423.553 114.852 427.747 129.463L475.882 297.145C480.076 311.756 474.685 332.566 463.848 343.585Z" fill="#E8EAF6"/>
</g>
</svg>
