<svg width="722" height="665" viewBox="0 0 722 665" fill="none" xmlns="http://www.w3.org/2000/svg">
<mask id="mask0_36_2813" style="mask-type:luminance" maskUnits="userSpaceOnUse" x="270" y="37" width="25" height="20">
<path d="M274.664 37.0959L294.98 42.491L291.257 56.5121L270.941 51.1171L274.664 37.0959Z" fill="white"/>
</mask>
<g mask="url(#mask0_36_2813)">
<path d="M272.41 48.3347L276.501 52.4125L283.483 45.4069L293.046 47.9464L294.529 42.3601L281.738 38.9633L272.41 48.3347Z" fill="#E8EAF6"/>
</g>
<path d="M182.146 138.996L186.231 143.07L201.276 127.959L197.191 123.886L182.146 138.996Z" fill="#E8EAF6"/>
<path d="M91.8655 229.645L95.9615 233.724L111.007 218.611L106.913 214.535L91.8655 229.645Z" fill="#E8EAF6"/>
<path d="M121.957 199.43L126.05 203.506L141.104 188.397L137.008 184.318L121.957 199.43Z" fill="#E8EAF6"/>
<path d="M152.054 169.213L156.148 173.289L171.193 158.178L167.099 154.102L152.054 169.213Z" fill="#E8EAF6"/>
<path d="M242.319 78.5543L246.413 82.6301L261.459 67.5229L257.364 63.4436L242.319 78.5543Z" fill="#E8EAF6"/>
<path d="M212.235 108.778L216.32 112.851L231.368 97.7415L227.274 93.6657L212.235 108.778Z" fill="#E8EAF6"/>
<path d="M76.8242 244.755L67.4866 254.13L70.9437 266.899L76.519 265.385L73.9403 255.844L80.9137 248.836L76.8242 244.755Z" fill="#E8EAF6"/>
<path d="M98.7769 369.817L104.344 390.396L109.919 388.893L104.351 368.306L98.7769 369.817Z" fill="#E8EAF6"/>
<path d="M121.051 452.146L126.612 472.729L132.188 471.221L126.62 450.633L121.051 452.146Z" fill="#E8EAF6"/>
<path d="M109.909 410.984L115.484 431.567L121.052 430.057L115.487 409.47L109.909 410.984Z" fill="#E8EAF6"/>
<path d="M76.5074 287.478L82.0754 308.066L87.6528 306.555L82.0861 285.974L76.5074 287.478Z" fill="#E8EAF6"/>
<path d="M132.177 493.316L137.744 513.894L143.323 512.39L137.755 491.803L132.177 493.316Z" fill="#E8EAF6"/>
<path d="M87.643 328.645L93.2117 349.23L98.7863 347.718L93.2181 327.143L87.643 328.645Z" fill="#E8EAF6"/>
<mask id="mask1_36_2813" style="mask-type:luminance" maskUnits="userSpaceOnUse" x="139" y="531" width="25" height="20">
<path d="M143.387 531.445L163.703 536.84L160.008 550.753L139.692 545.358L143.387 531.445Z" fill="white"/>
</mask>
<g mask="url(#mask1_36_2813)">
<path d="M148.888 532.965L143.314 534.473L146.761 547.246L159.552 550.643L161.035 545.056L151.473 542.517L148.888 532.965Z" fill="#E8EAF6"/>
</g>
<mask id="mask2_36_2813" style="mask-type:luminance" maskUnits="userSpaceOnUse" x="179" y="550" width="24" height="12">
<path d="M181.174 550.025L202.941 555.805L201.366 561.737L179.599 555.957L181.174 550.025Z" fill="white"/>
</mask>
<g mask="url(#mask2_36_2813)">
<path d="M180.163 556.118L200.774 561.591L202.257 556.005L181.646 550.531L180.163 556.118Z" fill="#E8EAF6"/>
</g>
<mask id="mask3_36_2813" style="mask-type:luminance" maskUnits="userSpaceOnUse" x="303" y="582" width="24" height="13">
<path d="M305.247 582.973L326.289 588.561L324.713 594.493L303.672 588.905L305.247 582.973Z" fill="white"/>
</mask>
<g mask="url(#mask3_36_2813)">
<path d="M303.831 588.959L324.436 594.431L325.92 588.844L305.314 583.373L303.831 588.959Z" fill="#E8EAF6"/>
</g>
<mask id="mask4_36_2813" style="mask-type:luminance" maskUnits="userSpaceOnUse" x="385" y="604" width="25" height="13">
<path d="M387.237 604.745L409.004 610.526L407.429 616.458L385.662 610.677L387.237 604.745Z" fill="white"/>
</mask>
<g mask="url(#mask4_36_2813)">
<path d="M386.274 610.851L406.879 616.323L408.362 610.737L387.757 605.265L386.274 610.851Z" fill="#E8EAF6"/>
</g>
<mask id="mask5_36_2813" style="mask-type:luminance" maskUnits="userSpaceOnUse" x="345" y="593" width="23" height="13">
<path d="M346.605 593.956L367.647 599.544L366.071 605.476L345.03 599.888L346.605 593.956Z" fill="white"/>
</mask>
<g mask="url(#mask5_36_2813)">
<path d="M345.047 599.905L365.66 605.379L367.144 599.792L346.53 594.318L345.047 599.905Z" fill="#E8EAF6"/>
</g>
<mask id="mask6_36_2813" style="mask-type:luminance" maskUnits="userSpaceOnUse" x="220" y="561" width="24" height="12">
<path d="M222.532 561.007L243.573 566.595L241.998 572.527L220.956 566.939L222.532 561.007Z" fill="white"/>
</mask>
<g mask="url(#mask6_36_2813)">
<path d="M221.387 567.065L241.992 572.537L243.476 566.95L222.871 561.478L221.387 567.065Z" fill="#E8EAF6"/>
</g>
<mask id="mask7_36_2813" style="mask-type:luminance" maskUnits="userSpaceOnUse" x="262" y="571" width="23" height="13">
<path d="M263.89 571.99L284.931 577.577L283.356 583.509L262.314 577.922L263.89 571.99Z" fill="white"/>
</mask>
<g mask="url(#mask7_36_2813)">
<path d="M262.606 578.01L283.217 583.484L284.701 577.897L264.09 572.424L262.606 578.01Z" fill="#E8EAF6"/>
</g>
<mask id="mask8_36_2813" style="mask-type:luminance" maskUnits="userSpaceOnUse" x="427" y="607" width="25" height="21">
<path d="M430.714 607.747L451.03 613.142L447.336 627.056L427.02 621.661L430.714 607.747Z" fill="white"/>
</mask>
<g mask="url(#mask8_36_2813)">
<path d="M438.531 618.749L428.968 616.209L427.484 621.795L440.275 625.192L449.605 615.812L445.511 611.737L438.531 618.749Z" fill="#E8EAF6"/>
</g>
<path d="M580.914 475.753L585.005 479.831L600.05 464.718L595.955 460.647L580.914 475.753Z" fill="#E8EAF6"/>
<path d="M460.554 596.634L464.649 600.706L479.692 585.601L475.6 581.52L460.554 596.634Z" fill="#E8EAF6"/>
<path d="M611.003 445.534L615.091 449.611L630.139 434.498L626.045 430.425L611.003 445.534Z" fill="#E8EAF6"/>
<path d="M550.827 505.978L554.922 510.048L569.969 494.944L565.872 490.867L550.827 505.978Z" fill="#E8EAF6"/>
<path d="M490.647 566.412L494.738 570.487L509.78 555.385L505.691 551.304L490.647 566.412Z" fill="#E8EAF6"/>
<path d="M520.735 536.197L524.829 540.272L539.873 525.164L535.78 521.083L520.735 536.197Z" fill="#E8EAF6"/>
<path d="M651.07 397.248L645.489 398.761L648.07 408.306L641.094 415.31L645.19 419.393L654.515 410.018L651.07 397.248Z" fill="#E8EAF6"/>
<path d="M623.225 316.426L628.789 337.007L634.365 335.499L628.799 314.915L623.225 316.426Z" fill="#E8EAF6"/>
<path d="M612.098 253.166L606.53 232.588L600.953 234.096L606.52 254.677L612.098 253.166Z" fill="#E8EAF6"/>
<path d="M634.358 357.589L639.92 378.176L645.497 376.665L639.929 356.08L634.358 357.589Z" fill="#E8EAF6"/>
<path d="M623.227 294.332L617.663 273.752L612.089 275.26L617.656 295.842L623.227 294.332Z" fill="#E8EAF6"/>
<path d="M589.829 170.835L584.268 150.255L578.691 151.766L584.255 172.346L589.829 170.835Z" fill="#E8EAF6"/>
<path d="M600.964 212.005L595.397 191.423L589.818 192.93L595.384 213.514L600.964 212.005Z" fill="#E8EAF6"/>
<mask id="mask9_36_2813" style="mask-type:luminance" maskUnits="userSpaceOnUse" x="558" y="113" width="25" height="20">
<path d="M561.991 113.397L582.307 118.792L578.584 132.814L558.268 127.419L561.991 113.397Z" fill="white"/>
</mask>
<g mask="url(#mask9_36_2813)">
<path d="M562.461 113.51L560.978 119.097L570.541 121.636L573.124 131.182L578.702 129.671L575.252 116.907L562.461 113.51Z" fill="#E8EAF6"/>
</g>
<mask id="mask10_36_2813" style="mask-type:luminance" maskUnits="userSpaceOnUse" x="437" y="80" width="23" height="13">
<path d="M438.644 80.6427L459.686 86.2304L458.082 92.2702L437.04 86.6825L438.644 80.6427Z" fill="white"/>
</mask>
<g mask="url(#mask10_36_2813)">
<path d="M437.316 86.2603L457.93 91.7344L459.413 86.148L438.8 80.674L437.316 86.2603Z" fill="#E8EAF6"/>
</g>
<mask id="mask11_36_2813" style="mask-type:luminance" maskUnits="userSpaceOnUse" x="478" y="91" width="24" height="13">
<path d="M480.002 91.6245L501.044 97.2122L499.44 103.252L478.398 97.6643L480.002 91.6245Z" fill="white"/>
</mask>
<g mask="url(#mask11_36_2813)">
<path d="M500.632 97.0912L480.024 91.6187L478.541 97.205L499.149 102.678L500.632 97.0912Z" fill="#E8EAF6"/>
</g>
<mask id="mask12_36_2813" style="mask-type:luminance" maskUnits="userSpaceOnUse" x="354" y="58" width="23" height="13">
<path d="M355.929 58.6765L376.97 64.2642L375.366 70.304L354.325 64.7163L355.929 58.6765Z" fill="white"/>
</mask>
<g mask="url(#mask12_36_2813)">
<path d="M354.873 64.3661L375.487 69.8402L376.97 64.2538L356.356 58.7798L354.873 64.3661Z" fill="#E8EAF6"/>
</g>
<mask id="mask13_36_2813" style="mask-type:luminance" maskUnits="userSpaceOnUse" x="395" y="69" width="24" height="13">
<path d="M397.287 69.6595L418.328 75.2473L416.724 81.2871L395.683 75.6994L397.287 69.6595Z" fill="white"/>
</mask>
<g mask="url(#mask13_36_2813)">
<path d="M418.189 75.1991L397.584 69.7273L396.101 75.3136L416.706 80.7854L418.189 75.1991Z" fill="#E8EAF6"/>
</g>
<mask id="mask14_36_2813" style="mask-type:luminance" maskUnits="userSpaceOnUse" x="312" y="47" width="25" height="13">
<path d="M314.571 47.6943L336.338 53.4747L334.735 59.5146L312.967 53.7342L314.571 47.6943Z" fill="white"/>
</mask>
<g mask="url(#mask14_36_2813)">
<path d="M335.749 53.3067L315.141 47.8341L313.658 53.4204L334.266 58.893L335.749 53.3067Z" fill="#E8EAF6"/>
</g>
<mask id="mask15_36_2813" style="mask-type:luminance" maskUnits="userSpaceOnUse" x="519" y="102" width="24" height="13">
<path d="M520.634 102.415L542.401 108.196L540.797 114.236L519.03 108.455L520.634 102.415Z" fill="white"/>
</mask>
<g mask="url(#mask15_36_2813)">
<path d="M519.76 108.152L540.374 113.626L541.857 108.04L521.244 102.566L519.76 108.152Z" fill="#E8EAF6"/>
</g>
</svg>
