<svg width="16" height="13" viewBox="0 0 16 13" fill="none" xmlns="http://www.w3.org/2000/svg">
<path d="M14.362 3.23453C14.372 3.37522 14.372 3.51657 14.372 3.65859C14.372 7.99725 11.0693 13 5.032 13V12.998C3.24815 13.0004 1.5013 12.4894 0 11.5258C0.859438 11.6294 1.73086 11.5625 2.56444 11.329C3.39801 11.0955 4.17739 10.6999 4.858 10.1649C4.17296 10.1519 3.5091 9.92516 2.95925 9.5163C2.40941 9.10744 2.00107 8.53693 1.79133 7.88456C2.28312 7.9794 2.7901 7.96024 3.27333 7.82856C2.53049 7.67837 1.86245 7.27585 1.38249 6.68924C0.902531 6.10263 0.640207 5.36805 0.64 4.61007V4.56873C1.09654 4.82319 1.60758 4.96406 2.13 4.97946C1.43498 4.5153 0.942945 3.80368 0.754066 2.98945C0.565187 2.17523 0.693661 1.31962 1.11333 0.596801C1.93774 1.61105 2.96621 2.44056 4.13197 3.03145C5.29773 3.62234 6.57471 3.96141 7.88 4.02665C7.7174 3.32309 7.791 2.58556 8.08944 1.92803C8.38788 1.2705 8.89454 0.729574 9.53111 0.388853C10.1677 0.0481317 10.8987 -0.0734182 11.6113 0.0429873C12.3239 0.159393 12.9782 0.507273 13.4733 1.03287C14.2088 0.887818 14.9141 0.618117 15.5587 0.235414C15.3137 0.995846 14.8007 1.64133 14.1153 2.05169C14.7659 1.97464 15.4011 1.80045 16 1.53494C15.5592 2.19423 15.0045 2.76974 14.362 3.23453Z" fill="white"/>
</svg>
